<?xml version="1.0" encoding="utf-8" standalone="no"?>
<!DOCTYPE svg PUBLIC "-//W3C//DTD SVG 1.1//EN"
  "http://www.w3.org/Graphics/SVG/1.1/DTD/svg11.dtd">
<!-- Created with matplotlib (https://matplotlib.org/) -->
<svg height="288pt" version="1.1" viewBox="0 0 432 288" width="432pt" xmlns="http://www.w3.org/2000/svg" xmlns:xlink="http://www.w3.org/1999/xlink">
 <defs>
  <style type="text/css">
*{stroke-linecap:butt;stroke-linejoin:round;}
  </style>
 </defs>
 <g id="figure_1">
  <g id="patch_1">
   <path d="M 0 288 
L 432 288 
L 432 0 
L 0 0 
z
" style="fill:#ffffff;"/>
  </g>
  <g id="axes_1">
   <g id="patch_2">
    <path d="M 101.8 260.2 
L 416.942339 260.2 
L 416.942339 10.8 
L 101.8 10.8 
z
" style="fill:#ffffff;"/>
   </g>
   <g id="matplotlib.axis_1">
    <g id="xtick_1">
     <g id="line2d_1">
      <path clip-path="url(#pa7cd56e642)" d="M 158.63531 260.2 
L 158.63531 10.8 
" style="fill:none;stroke:#b0b0b0;stroke-linecap:square;stroke-width:0.8;"/>
     </g>
     <g id="line2d_2">
      <defs>
       <path d="M 0 0 
L 0 3.5 
" id="med43f6e8bb" style="stroke:#000000;stroke-width:0.8;"/>
      </defs>
      <g>
       <use style="stroke:#000000;stroke-width:0.8;" x="158.63531" xlink:href="#med43f6e8bb" y="260.2"/>
      </g>
     </g>
     <g id="text_1">
      <!-- 700 -->
      <defs>
       <path d="M 8.203125 72.90625 
L 55.078125 72.90625 
L 55.078125 68.703125 
L 28.609375 0 
L 18.3125 0 
L 43.21875 64.59375 
L 8.203125 64.59375 
z
" id="DejaVuSans-55"/>
       <path d="M 31.78125 66.40625 
Q 24.171875 66.40625 20.328125 58.90625 
Q 16.5 51.421875 16.5 36.375 
Q 16.5 21.390625 20.328125 13.890625 
Q 24.171875 6.390625 31.78125 6.390625 
Q 39.453125 6.390625 43.28125 13.890625 
Q 47.125 21.390625 47.125 36.375 
Q 47.125 51.421875 43.28125 58.90625 
Q 39.453125 66.40625 31.78125 66.40625 
z
M 31.78125 74.21875 
Q 44.046875 74.21875 50.515625 64.515625 
Q 56.984375 54.828125 56.984375 36.375 
Q 56.984375 17.96875 50.515625 8.265625 
Q 44.046875 -1.421875 31.78125 -1.421875 
Q 19.53125 -1.421875 13.0625 8.265625 
Q 6.59375 17.96875 6.59375 36.375 
Q 6.59375 54.828125 13.0625 64.515625 
Q 19.53125 74.21875 31.78125 74.21875 
z
" id="DejaVuSans-48"/>
      </defs>
      <g transform="translate(149.09156 274.798437)scale(0.1 -0.1)">
       <use xlink:href="#DejaVuSans-55"/>
       <use x="63.623047" xlink:href="#DejaVuSans-48"/>
       <use x="127.246094" xlink:href="#DejaVuSans-48"/>
      </g>
     </g>
    </g>
    <g id="xtick_2">
     <g id="line2d_3">
      <path clip-path="url(#pa7cd56e642)" d="M 221.243054 260.2 
L 221.243054 10.8 
" style="fill:none;stroke:#b0b0b0;stroke-linecap:square;stroke-width:0.8;"/>
     </g>
     <g id="line2d_4">
      <g>
       <use style="stroke:#000000;stroke-width:0.8;" x="221.243054" xlink:href="#med43f6e8bb" y="260.2"/>
      </g>
     </g>
     <g id="text_2">
      <!-- 800 -->
      <defs>
       <path d="M 31.78125 34.625 
Q 24.75 34.625 20.71875 30.859375 
Q 16.703125 27.09375 16.703125 20.515625 
Q 16.703125 13.921875 20.71875 10.15625 
Q 24.75 6.390625 31.78125 6.390625 
Q 38.8125 6.390625 42.859375 10.171875 
Q 46.921875 13.96875 46.921875 20.515625 
Q 46.921875 27.09375 42.890625 30.859375 
Q 38.875 34.625 31.78125 34.625 
z
M 21.921875 38.8125 
Q 15.578125 40.375 12.03125 44.71875 
Q 8.5 49.078125 8.5 55.328125 
Q 8.5 64.0625 14.71875 69.140625 
Q 20.953125 74.21875 31.78125 74.21875 
Q 42.671875 74.21875 48.875 69.140625 
Q 55.078125 64.0625 55.078125 55.328125 
Q 55.078125 49.078125 51.53125 44.71875 
Q 48 40.375 41.703125 38.8125 
Q 48.828125 37.15625 52.796875 32.3125 
Q 56.78125 27.484375 56.78125 20.515625 
Q 56.78125 9.90625 50.3125 4.234375 
Q 43.84375 -1.421875 31.78125 -1.421875 
Q 19.734375 -1.421875 13.25 4.234375 
Q 6.78125 9.90625 6.78125 20.515625 
Q 6.78125 27.484375 10.78125 32.3125 
Q 14.796875 37.15625 21.921875 38.8125 
z
M 18.3125 54.390625 
Q 18.3125 48.734375 21.84375 45.5625 
Q 25.390625 42.390625 31.78125 42.390625 
Q 38.140625 42.390625 41.71875 45.5625 
Q 45.3125 48.734375 45.3125 54.390625 
Q 45.3125 60.0625 41.71875 63.234375 
Q 38.140625 66.40625 31.78125 66.40625 
Q 25.390625 66.40625 21.84375 63.234375 
Q 18.3125 60.0625 18.3125 54.390625 
z
" id="DejaVuSans-56"/>
      </defs>
      <g transform="translate(211.699304 274.798437)scale(0.1 -0.1)">
       <use xlink:href="#DejaVuSans-56"/>
       <use x="63.623047" xlink:href="#DejaVuSans-48"/>
       <use x="127.246094" xlink:href="#DejaVuSans-48"/>
      </g>
     </g>
    </g>
    <g id="xtick_3">
     <g id="line2d_5">
      <path clip-path="url(#pa7cd56e642)" d="M 283.850798 260.2 
L 283.850798 10.8 
" style="fill:none;stroke:#b0b0b0;stroke-linecap:square;stroke-width:0.8;"/>
     </g>
     <g id="line2d_6">
      <g>
       <use style="stroke:#000000;stroke-width:0.8;" x="283.850798" xlink:href="#med43f6e8bb" y="260.2"/>
      </g>
     </g>
     <g id="text_3">
      <!-- 900 -->
      <defs>
       <path d="M 10.984375 1.515625 
L 10.984375 10.5 
Q 14.703125 8.734375 18.5 7.8125 
Q 22.3125 6.890625 25.984375 6.890625 
Q 35.75 6.890625 40.890625 13.453125 
Q 46.046875 20.015625 46.78125 33.40625 
Q 43.953125 29.203125 39.59375 26.953125 
Q 35.25 24.703125 29.984375 24.703125 
Q 19.046875 24.703125 12.671875 31.3125 
Q 6.296875 37.9375 6.296875 49.421875 
Q 6.296875 60.640625 12.9375 67.421875 
Q 19.578125 74.21875 30.609375 74.21875 
Q 43.265625 74.21875 49.921875 64.515625 
Q 56.59375 54.828125 56.59375 36.375 
Q 56.59375 19.140625 48.40625 8.859375 
Q 40.234375 -1.421875 26.421875 -1.421875 
Q 22.703125 -1.421875 18.890625 -0.6875 
Q 15.09375 0.046875 10.984375 1.515625 
z
M 30.609375 32.421875 
Q 37.25 32.421875 41.125 36.953125 
Q 45.015625 41.5 45.015625 49.421875 
Q 45.015625 57.28125 41.125 61.84375 
Q 37.25 66.40625 30.609375 66.40625 
Q 23.96875 66.40625 20.09375 61.84375 
Q 16.21875 57.28125 16.21875 49.421875 
Q 16.21875 41.5 20.09375 36.953125 
Q 23.96875 32.421875 30.609375 32.421875 
z
" id="DejaVuSans-57"/>
      </defs>
      <g transform="translate(274.307048 274.798437)scale(0.1 -0.1)">
       <use xlink:href="#DejaVuSans-57"/>
       <use x="63.623047" xlink:href="#DejaVuSans-48"/>
       <use x="127.246094" xlink:href="#DejaVuSans-48"/>
      </g>
     </g>
    </g>
    <g id="xtick_4">
     <g id="line2d_7">
      <path clip-path="url(#pa7cd56e642)" d="M 346.458541 260.2 
L 346.458541 10.8 
" style="fill:none;stroke:#b0b0b0;stroke-linecap:square;stroke-width:0.8;"/>
     </g>
     <g id="line2d_8">
      <g>
       <use style="stroke:#000000;stroke-width:0.8;" x="346.458541" xlink:href="#med43f6e8bb" y="260.2"/>
      </g>
     </g>
     <g id="text_4">
      <!-- 1000 -->
      <defs>
       <path d="M 12.40625 8.296875 
L 28.515625 8.296875 
L 28.515625 63.921875 
L 10.984375 60.40625 
L 10.984375 69.390625 
L 28.421875 72.90625 
L 38.28125 72.90625 
L 38.28125 8.296875 
L 54.390625 8.296875 
L 54.390625 0 
L 12.40625 0 
z
" id="DejaVuSans-49"/>
      </defs>
      <g transform="translate(333.733541 274.798437)scale(0.1 -0.1)">
       <use xlink:href="#DejaVuSans-49"/>
       <use x="63.623047" xlink:href="#DejaVuSans-48"/>
       <use x="127.246094" xlink:href="#DejaVuSans-48"/>
       <use x="190.869141" xlink:href="#DejaVuSans-48"/>
      </g>
     </g>
    </g>
    <g id="xtick_5">
     <g id="line2d_9">
      <path clip-path="url(#pa7cd56e642)" d="M 409.066285 260.2 
L 409.066285 10.8 
" style="fill:none;stroke:#b0b0b0;stroke-linecap:square;stroke-width:0.8;"/>
     </g>
     <g id="line2d_10">
      <g>
       <use style="stroke:#000000;stroke-width:0.8;" x="409.066285" xlink:href="#med43f6e8bb" y="260.2"/>
      </g>
     </g>
     <g id="text_5">
      <!-- 1100 -->
      <g transform="translate(396.341285 274.798437)scale(0.1 -0.1)">
       <use xlink:href="#DejaVuSans-49"/>
       <use x="63.623047" xlink:href="#DejaVuSans-49"/>
       <use x="127.246094" xlink:href="#DejaVuSans-48"/>
       <use x="190.869141" xlink:href="#DejaVuSans-48"/>
      </g>
     </g>
    </g>
   </g>
   <g id="matplotlib.axis_2">
    <g id="ytick_1">
     <g id="line2d_11">
      <path clip-path="url(#pa7cd56e642)" d="M 101.8 254.261905 
L 416.942339 254.261905 
" style="fill:none;stroke:#b0b0b0;stroke-linecap:square;stroke-width:0.8;"/>
     </g>
     <g id="line2d_12">
      <defs>
       <path d="M 0 0 
L -3.5 0 
" id="mbdf0cb959c" style="stroke:#000000;stroke-width:0.8;"/>
      </defs>
      <g>
       <use style="stroke:#000000;stroke-width:0.8;" x="101.8" xlink:href="#mbdf0cb959c" y="254.261905"/>
      </g>
     </g>
     <g id="text_6">
      <!-- Baeocystin -->
      <defs>
       <path d="M 19.671875 34.8125 
L 19.671875 8.109375 
L 35.5 8.109375 
Q 43.453125 8.109375 47.28125 11.40625 
Q 51.125 14.703125 51.125 21.484375 
Q 51.125 28.328125 47.28125 31.5625 
Q 43.453125 34.8125 35.5 34.8125 
z
M 19.671875 64.796875 
L 19.671875 42.828125 
L 34.28125 42.828125 
Q 41.5 42.828125 45.03125 45.53125 
Q 48.578125 48.25 48.578125 53.8125 
Q 48.578125 59.328125 45.03125 62.0625 
Q 41.5 64.796875 34.28125 64.796875 
z
M 9.8125 72.90625 
L 35.015625 72.90625 
Q 46.296875 72.90625 52.390625 68.21875 
Q 58.5 63.53125 58.5 54.890625 
Q 58.5 48.1875 55.375 44.234375 
Q 52.25 40.28125 46.1875 39.3125 
Q 53.46875 37.75 57.5 32.78125 
Q 61.53125 27.828125 61.53125 20.40625 
Q 61.53125 10.640625 54.890625 5.3125 
Q 48.25 0 35.984375 0 
L 9.8125 0 
z
" id="DejaVuSans-66"/>
       <path d="M 34.28125 27.484375 
Q 23.390625 27.484375 19.1875 25 
Q 14.984375 22.515625 14.984375 16.5 
Q 14.984375 11.71875 18.140625 8.90625 
Q 21.296875 6.109375 26.703125 6.109375 
Q 34.1875 6.109375 38.703125 11.40625 
Q 43.21875 16.703125 43.21875 25.484375 
L 43.21875 27.484375 
z
M 52.203125 31.203125 
L 52.203125 0 
L 43.21875 0 
L 43.21875 8.296875 
Q 40.140625 3.328125 35.546875 0.953125 
Q 30.953125 -1.421875 24.3125 -1.421875 
Q 15.921875 -1.421875 10.953125 3.296875 
Q 6 8.015625 6 15.921875 
Q 6 25.140625 12.171875 29.828125 
Q 18.359375 34.515625 30.609375 34.515625 
L 43.21875 34.515625 
L 43.21875 35.40625 
Q 43.21875 41.609375 39.140625 45 
Q 35.0625 48.390625 27.6875 48.390625 
Q 23 48.390625 18.546875 47.265625 
Q 14.109375 46.140625 10.015625 43.890625 
L 10.015625 52.203125 
Q 14.9375 54.109375 19.578125 55.046875 
Q 24.21875 56 28.609375 56 
Q 40.484375 56 46.34375 49.84375 
Q 52.203125 43.703125 52.203125 31.203125 
z
" id="DejaVuSans-97"/>
       <path d="M 56.203125 29.59375 
L 56.203125 25.203125 
L 14.890625 25.203125 
Q 15.484375 15.921875 20.484375 11.0625 
Q 25.484375 6.203125 34.421875 6.203125 
Q 39.59375 6.203125 44.453125 7.46875 
Q 49.3125 8.734375 54.109375 11.28125 
L 54.109375 2.78125 
Q 49.265625 0.734375 44.1875 -0.34375 
Q 39.109375 -1.421875 33.890625 -1.421875 
Q 20.796875 -1.421875 13.15625 6.1875 
Q 5.515625 13.8125 5.515625 26.8125 
Q 5.515625 40.234375 12.765625 48.109375 
Q 20.015625 56 32.328125 56 
Q 43.359375 56 49.78125 48.890625 
Q 56.203125 41.796875 56.203125 29.59375 
z
M 47.21875 32.234375 
Q 47.125 39.59375 43.09375 43.984375 
Q 39.0625 48.390625 32.421875 48.390625 
Q 24.90625 48.390625 20.390625 44.140625 
Q 15.875 39.890625 15.1875 32.171875 
z
" id="DejaVuSans-101"/>
       <path d="M 30.609375 48.390625 
Q 23.390625 48.390625 19.1875 42.75 
Q 14.984375 37.109375 14.984375 27.296875 
Q 14.984375 17.484375 19.15625 11.84375 
Q 23.34375 6.203125 30.609375 6.203125 
Q 37.796875 6.203125 41.984375 11.859375 
Q 46.1875 17.53125 46.1875 27.296875 
Q 46.1875 37.015625 41.984375 42.703125 
Q 37.796875 48.390625 30.609375 48.390625 
z
M 30.609375 56 
Q 42.328125 56 49.015625 48.375 
Q 55.71875 40.765625 55.71875 27.296875 
Q 55.71875 13.875 49.015625 6.21875 
Q 42.328125 -1.421875 30.609375 -1.421875 
Q 18.84375 -1.421875 12.171875 6.21875 
Q 5.515625 13.875 5.515625 27.296875 
Q 5.515625 40.765625 12.171875 48.375 
Q 18.84375 56 30.609375 56 
z
" id="DejaVuSans-111"/>
       <path d="M 48.78125 52.59375 
L 48.78125 44.1875 
Q 44.96875 46.296875 41.140625 47.34375 
Q 37.3125 48.390625 33.40625 48.390625 
Q 24.65625 48.390625 19.8125 42.84375 
Q 14.984375 37.3125 14.984375 27.296875 
Q 14.984375 17.28125 19.8125 11.734375 
Q 24.65625 6.203125 33.40625 6.203125 
Q 37.3125 6.203125 41.140625 7.25 
Q 44.96875 8.296875 48.78125 10.40625 
L 48.78125 2.09375 
Q 45.015625 0.34375 40.984375 -0.53125 
Q 36.96875 -1.421875 32.421875 -1.421875 
Q 20.0625 -1.421875 12.78125 6.34375 
Q 5.515625 14.109375 5.515625 27.296875 
Q 5.515625 40.671875 12.859375 48.328125 
Q 20.21875 56 33.015625 56 
Q 37.15625 56 41.109375 55.140625 
Q 45.0625 54.296875 48.78125 52.59375 
z
" id="DejaVuSans-99"/>
       <path d="M 32.171875 -5.078125 
Q 28.375 -14.84375 24.75 -17.8125 
Q 21.140625 -20.796875 15.09375 -20.796875 
L 7.90625 -20.796875 
L 7.90625 -13.28125 
L 13.1875 -13.28125 
Q 16.890625 -13.28125 18.9375 -11.515625 
Q 21 -9.765625 23.484375 -3.21875 
L 25.09375 0.875 
L 2.984375 54.6875 
L 12.5 54.6875 
L 29.59375 11.921875 
L 46.6875 54.6875 
L 56.203125 54.6875 
z
" id="DejaVuSans-121"/>
       <path d="M 44.28125 53.078125 
L 44.28125 44.578125 
Q 40.484375 46.53125 36.375 47.5 
Q 32.28125 48.484375 27.875 48.484375 
Q 21.1875 48.484375 17.84375 46.4375 
Q 14.5 44.390625 14.5 40.28125 
Q 14.5 37.15625 16.890625 35.375 
Q 19.28125 33.59375 26.515625 31.984375 
L 29.59375 31.296875 
Q 39.15625 29.25 43.1875 25.515625 
Q 47.21875 21.78125 47.21875 15.09375 
Q 47.21875 7.46875 41.1875 3.015625 
Q 35.15625 -1.421875 24.609375 -1.421875 
Q 20.21875 -1.421875 15.453125 -0.5625 
Q 10.6875 0.296875 5.421875 2 
L 5.421875 11.28125 
Q 10.40625 8.6875 15.234375 7.390625 
Q 20.0625 6.109375 24.8125 6.109375 
Q 31.15625 6.109375 34.5625 8.28125 
Q 37.984375 10.453125 37.984375 14.40625 
Q 37.984375 18.0625 35.515625 20.015625 
Q 33.0625 21.96875 24.703125 23.78125 
L 21.578125 24.515625 
Q 13.234375 26.265625 9.515625 29.90625 
Q 5.8125 33.546875 5.8125 39.890625 
Q 5.8125 47.609375 11.28125 51.796875 
Q 16.75 56 26.8125 56 
Q 31.78125 56 36.171875 55.265625 
Q 40.578125 54.546875 44.28125 53.078125 
z
" id="DejaVuSans-115"/>
       <path d="M 18.3125 70.21875 
L 18.3125 54.6875 
L 36.8125 54.6875 
L 36.8125 47.703125 
L 18.3125 47.703125 
L 18.3125 18.015625 
Q 18.3125 11.328125 20.140625 9.421875 
Q 21.96875 7.515625 27.59375 7.515625 
L 36.8125 7.515625 
L 36.8125 0 
L 27.59375 0 
Q 17.1875 0 13.234375 3.875 
Q 9.28125 7.765625 9.28125 18.015625 
L 9.28125 47.703125 
L 2.6875 47.703125 
L 2.6875 54.6875 
L 9.28125 54.6875 
L 9.28125 70.21875 
z
" id="DejaVuSans-116"/>
       <path d="M 9.421875 54.6875 
L 18.40625 54.6875 
L 18.40625 0 
L 9.421875 0 
z
M 9.421875 75.984375 
L 18.40625 75.984375 
L 18.40625 64.59375 
L 9.421875 64.59375 
z
" id="DejaVuSans-105"/>
       <path d="M 54.890625 33.015625 
L 54.890625 0 
L 45.90625 0 
L 45.90625 32.71875 
Q 45.90625 40.484375 42.875 44.328125 
Q 39.84375 48.1875 33.796875 48.1875 
Q 26.515625 48.1875 22.3125 43.546875 
Q 18.109375 38.921875 18.109375 30.90625 
L 18.109375 0 
L 9.078125 0 
L 9.078125 54.6875 
L 18.109375 54.6875 
L 18.109375 46.1875 
Q 21.34375 51.125 25.703125 53.5625 
Q 30.078125 56 35.796875 56 
Q 45.21875 56 50.046875 50.171875 
Q 54.890625 44.34375 54.890625 33.015625 
z
" id="DejaVuSans-110"/>
      </defs>
      <g transform="translate(39.876562 258.061124)scale(0.1 -0.1)">
       <use xlink:href="#DejaVuSans-66"/>
       <use x="68.603516" xlink:href="#DejaVuSans-97"/>
       <use x="129.882812" xlink:href="#DejaVuSans-101"/>
       <use x="191.40625" xlink:href="#DejaVuSans-111"/>
       <use x="252.587891" xlink:href="#DejaVuSans-99"/>
       <use x="307.568359" xlink:href="#DejaVuSans-121"/>
       <use x="366.748047" xlink:href="#DejaVuSans-115"/>
       <use x="418.847656" xlink:href="#DejaVuSans-116"/>
       <use x="458.056641" xlink:href="#DejaVuSans-105"/>
       <use x="485.839844" xlink:href="#DejaVuSans-110"/>
      </g>
     </g>
    </g>
    <g id="ytick_2">
     <g id="line2d_13">
      <path clip-path="url(#pa7cd56e642)" d="M 101.8 242.385714 
L 416.942339 242.385714 
" style="fill:none;stroke:#b0b0b0;stroke-linecap:square;stroke-width:0.8;"/>
     </g>
     <g id="line2d_14">
      <g>
       <use style="stroke:#000000;stroke-width:0.8;" x="101.8" xlink:href="#mbdf0cb959c" y="242.385714"/>
      </g>
     </g>
     <g id="text_7">
      <!-- Psilocin -->
      <defs>
       <path d="M 19.671875 64.796875 
L 19.671875 37.40625 
L 32.078125 37.40625 
Q 38.96875 37.40625 42.71875 40.96875 
Q 46.484375 44.53125 46.484375 51.125 
Q 46.484375 57.671875 42.71875 61.234375 
Q 38.96875 64.796875 32.078125 64.796875 
z
M 9.8125 72.90625 
L 32.078125 72.90625 
Q 44.34375 72.90625 50.609375 67.359375 
Q 56.890625 61.8125 56.890625 51.125 
Q 56.890625 40.328125 50.609375 34.8125 
Q 44.34375 29.296875 32.078125 29.296875 
L 19.671875 29.296875 
L 19.671875 0 
L 9.8125 0 
z
" id="DejaVuSans-80"/>
       <path d="M 9.421875 75.984375 
L 18.40625 75.984375 
L 18.40625 0 
L 9.421875 0 
z
" id="DejaVuSans-108"/>
      </defs>
      <g transform="translate(57.446875 246.184933)scale(0.1 -0.1)">
       <use xlink:href="#DejaVuSans-80"/>
       <use x="58.552734" xlink:href="#DejaVuSans-115"/>
       <use x="110.652344" xlink:href="#DejaVuSans-105"/>
       <use x="138.435547" xlink:href="#DejaVuSans-108"/>
       <use x="166.21875" xlink:href="#DejaVuSans-111"/>
       <use x="227.400391" xlink:href="#DejaVuSans-99"/>
       <use x="282.380859" xlink:href="#DejaVuSans-105"/>
       <use x="310.164062" xlink:href="#DejaVuSans-110"/>
      </g>
     </g>
    </g>
    <g id="ytick_3">
     <g id="line2d_15">
      <path clip-path="url(#pa7cd56e642)" d="M 101.8 230.509524 
L 416.942339 230.509524 
" style="fill:none;stroke:#b0b0b0;stroke-linecap:square;stroke-width:0.8;"/>
     </g>
     <g id="line2d_16">
      <g>
       <use style="stroke:#000000;stroke-width:0.8;" x="101.8" xlink:href="#mbdf0cb959c" y="230.509524"/>
      </g>
     </g>
     <g id="text_8">
      <!-- Aeruginascin -->
      <defs>
       <path d="M 34.1875 63.1875 
L 20.796875 26.90625 
L 47.609375 26.90625 
z
M 28.609375 72.90625 
L 39.796875 72.90625 
L 67.578125 0 
L 57.328125 0 
L 50.6875 18.703125 
L 17.828125 18.703125 
L 11.1875 0 
L 0.78125 0 
z
" id="DejaVuSans-65"/>
       <path d="M 41.109375 46.296875 
Q 39.59375 47.171875 37.8125 47.578125 
Q 36.03125 48 33.890625 48 
Q 26.265625 48 22.1875 43.046875 
Q 18.109375 38.09375 18.109375 28.8125 
L 18.109375 0 
L 9.078125 0 
L 9.078125 54.6875 
L 18.109375 54.6875 
L 18.109375 46.1875 
Q 20.953125 51.171875 25.484375 53.578125 
Q 30.03125 56 36.53125 56 
Q 37.453125 56 38.578125 55.875 
Q 39.703125 55.765625 41.0625 55.515625 
z
" id="DejaVuSans-114"/>
       <path d="M 8.5 21.578125 
L 8.5 54.6875 
L 17.484375 54.6875 
L 17.484375 21.921875 
Q 17.484375 14.15625 20.5 10.265625 
Q 23.53125 6.390625 29.59375 6.390625 
Q 36.859375 6.390625 41.078125 11.03125 
Q 45.3125 15.671875 45.3125 23.6875 
L 45.3125 54.6875 
L 54.296875 54.6875 
L 54.296875 0 
L 45.3125 0 
L 45.3125 8.40625 
Q 42.046875 3.421875 37.71875 1 
Q 33.40625 -1.421875 27.6875 -1.421875 
Q 18.265625 -1.421875 13.375 4.4375 
Q 8.5 10.296875 8.5 21.578125 
z
M 31.109375 56 
z
" id="DejaVuSans-117"/>
       <path d="M 45.40625 27.984375 
Q 45.40625 37.75 41.375 43.109375 
Q 37.359375 48.484375 30.078125 48.484375 
Q 22.859375 48.484375 18.828125 43.109375 
Q 14.796875 37.75 14.796875 27.984375 
Q 14.796875 18.265625 18.828125 12.890625 
Q 22.859375 7.515625 30.078125 7.515625 
Q 37.359375 7.515625 41.375 12.890625 
Q 45.40625 18.265625 45.40625 27.984375 
z
M 54.390625 6.78125 
Q 54.390625 -7.171875 48.1875 -13.984375 
Q 42 -20.796875 29.203125 -20.796875 
Q 24.46875 -20.796875 20.265625 -20.09375 
Q 16.0625 -19.390625 12.109375 -17.921875 
L 12.109375 -9.1875 
Q 16.0625 -11.328125 19.921875 -12.34375 
Q 23.78125 -13.375 27.78125 -13.375 
Q 36.625 -13.375 41.015625 -8.765625 
Q 45.40625 -4.15625 45.40625 5.171875 
L 45.40625 9.625 
Q 42.625 4.78125 38.28125 2.390625 
Q 33.9375 0 27.875 0 
Q 17.828125 0 11.671875 7.65625 
Q 5.515625 15.328125 5.515625 27.984375 
Q 5.515625 40.671875 11.671875 48.328125 
Q 17.828125 56 27.875 56 
Q 33.9375 56 38.28125 53.609375 
Q 42.625 51.21875 45.40625 46.390625 
L 45.40625 54.6875 
L 54.390625 54.6875 
z
" id="DejaVuSans-103"/>
      </defs>
      <g transform="translate(30.117188 234.308743)scale(0.1 -0.1)">
       <use xlink:href="#DejaVuSans-65"/>
       <use x="66.658203" xlink:href="#DejaVuSans-101"/>
       <use x="128.181641" xlink:href="#DejaVuSans-114"/>
       <use x="169.294922" xlink:href="#DejaVuSans-117"/>
       <use x="232.673828" xlink:href="#DejaVuSans-103"/>
       <use x="296.150391" xlink:href="#DejaVuSans-105"/>
       <use x="323.933594" xlink:href="#DejaVuSans-110"/>
       <use x="387.3125" xlink:href="#DejaVuSans-97"/>
       <use x="448.591797" xlink:href="#DejaVuSans-115"/>
       <use x="500.691406" xlink:href="#DejaVuSans-99"/>
       <use x="555.671875" xlink:href="#DejaVuSans-105"/>
       <use x="583.455078" xlink:href="#DejaVuSans-110"/>
      </g>
     </g>
    </g>
    <g id="ytick_4">
     <g id="line2d_17">
      <path clip-path="url(#pa7cd56e642)" d="M 101.8 218.633333 
L 416.942339 218.633333 
" style="fill:none;stroke:#b0b0b0;stroke-linecap:square;stroke-width:0.8;"/>
     </g>
     <g id="line2d_18">
      <g>
       <use style="stroke:#000000;stroke-width:0.8;" x="101.8" xlink:href="#mbdf0cb959c" y="218.633333"/>
      </g>
     </g>
     <g id="text_9">
      <!-- Psilocybin -->
      <defs>
       <path d="M 48.6875 27.296875 
Q 48.6875 37.203125 44.609375 42.84375 
Q 40.53125 48.484375 33.40625 48.484375 
Q 26.265625 48.484375 22.1875 42.84375 
Q 18.109375 37.203125 18.109375 27.296875 
Q 18.109375 17.390625 22.1875 11.75 
Q 26.265625 6.109375 33.40625 6.109375 
Q 40.53125 6.109375 44.609375 11.75 
Q 48.6875 17.390625 48.6875 27.296875 
z
M 18.109375 46.390625 
Q 20.953125 51.265625 25.265625 53.625 
Q 29.59375 56 35.59375 56 
Q 45.5625 56 51.78125 48.09375 
Q 58.015625 40.1875 58.015625 27.296875 
Q 58.015625 14.40625 51.78125 6.484375 
Q 45.5625 -1.421875 35.59375 -1.421875 
Q 29.59375 -1.421875 25.265625 0.953125 
Q 20.953125 3.328125 18.109375 8.203125 
L 18.109375 0 
L 9.078125 0 
L 9.078125 75.984375 
L 18.109375 75.984375 
z
" id="DejaVuSans-98"/>
      </defs>
      <g transform="translate(45.179687 222.432552)scale(0.1 -0.1)">
       <use xlink:href="#DejaVuSans-80"/>
       <use x="58.552734" xlink:href="#DejaVuSans-115"/>
       <use x="110.652344" xlink:href="#DejaVuSans-105"/>
       <use x="138.435547" xlink:href="#DejaVuSans-108"/>
       <use x="166.21875" xlink:href="#DejaVuSans-111"/>
       <use x="227.400391" xlink:href="#DejaVuSans-99"/>
       <use x="282.380859" xlink:href="#DejaVuSans-121"/>
       <use x="341.560547" xlink:href="#DejaVuSans-98"/>
       <use x="405.037109" xlink:href="#DejaVuSans-105"/>
       <use x="432.820312" xlink:href="#DejaVuSans-110"/>
      </g>
     </g>
    </g>
    <g id="ytick_5">
     <g id="line2d_19">
      <path clip-path="url(#pa7cd56e642)" d="M 101.8 206.757143 
L 416.942339 206.757143 
" style="fill:none;stroke:#b0b0b0;stroke-linecap:square;stroke-width:0.8;"/>
     </g>
     <g id="line2d_20">
      <g>
       <use style="stroke:#000000;stroke-width:0.8;" x="101.8" xlink:href="#mbdf0cb959c" y="206.757143"/>
      </g>
     </g>
     <g id="text_10">
      <!-- Bufotenin -->
      <defs>
       <path d="M 37.109375 75.984375 
L 37.109375 68.5 
L 28.515625 68.5 
Q 23.6875 68.5 21.796875 66.546875 
Q 19.921875 64.59375 19.921875 59.515625 
L 19.921875 54.6875 
L 34.71875 54.6875 
L 34.71875 47.703125 
L 19.921875 47.703125 
L 19.921875 0 
L 10.890625 0 
L 10.890625 47.703125 
L 2.296875 47.703125 
L 2.296875 54.6875 
L 10.890625 54.6875 
L 10.890625 58.5 
Q 10.890625 67.625 15.140625 71.796875 
Q 19.390625 75.984375 28.609375 75.984375 
z
" id="DejaVuSans-102"/>
      </defs>
      <g transform="translate(46.435937 210.556362)scale(0.1 -0.1)">
       <use xlink:href="#DejaVuSans-66"/>
       <use x="68.603516" xlink:href="#DejaVuSans-117"/>
       <use x="131.982422" xlink:href="#DejaVuSans-102"/>
       <use x="167.1875" xlink:href="#DejaVuSans-111"/>
       <use x="228.369141" xlink:href="#DejaVuSans-116"/>
       <use x="267.578125" xlink:href="#DejaVuSans-101"/>
       <use x="329.101562" xlink:href="#DejaVuSans-110"/>
       <use x="392.480469" xlink:href="#DejaVuSans-105"/>
       <use x="420.263672" xlink:href="#DejaVuSans-110"/>
      </g>
     </g>
    </g>
    <g id="ytick_6">
     <g id="line2d_21">
      <path clip-path="url(#pa7cd56e642)" d="M 101.8 194.880952 
L 416.942339 194.880952 
" style="fill:none;stroke:#b0b0b0;stroke-linecap:square;stroke-width:0.8;"/>
     </g>
     <g id="line2d_22">
      <g>
       <use style="stroke:#000000;stroke-width:0.8;" x="101.8" xlink:href="#mbdf0cb959c" y="194.880952"/>
      </g>
     </g>
     <g id="text_11">
      <!-- ALD-52 -->
      <defs>
       <path d="M 9.8125 72.90625 
L 19.671875 72.90625 
L 19.671875 8.296875 
L 55.171875 8.296875 
L 55.171875 0 
L 9.8125 0 
z
" id="DejaVuSans-76"/>
       <path d="M 19.671875 64.796875 
L 19.671875 8.109375 
L 31.59375 8.109375 
Q 46.6875 8.109375 53.6875 14.9375 
Q 60.6875 21.78125 60.6875 36.53125 
Q 60.6875 51.171875 53.6875 57.984375 
Q 46.6875 64.796875 31.59375 64.796875 
z
M 9.8125 72.90625 
L 30.078125 72.90625 
Q 51.265625 72.90625 61.171875 64.09375 
Q 71.09375 55.28125 71.09375 36.53125 
Q 71.09375 17.671875 61.125 8.828125 
Q 51.171875 0 30.078125 0 
L 9.8125 0 
z
" id="DejaVuSans-68"/>
       <path d="M 4.890625 31.390625 
L 31.203125 31.390625 
L 31.203125 23.390625 
L 4.890625 23.390625 
z
" id="DejaVuSans-45"/>
       <path d="M 10.796875 72.90625 
L 49.515625 72.90625 
L 49.515625 64.59375 
L 19.828125 64.59375 
L 19.828125 46.734375 
Q 21.96875 47.46875 24.109375 47.828125 
Q 26.265625 48.1875 28.421875 48.1875 
Q 40.625 48.1875 47.75 41.5 
Q 54.890625 34.8125 54.890625 23.390625 
Q 54.890625 11.625 47.5625 5.09375 
Q 40.234375 -1.421875 26.90625 -1.421875 
Q 22.3125 -1.421875 17.546875 -0.640625 
Q 12.796875 0.140625 7.71875 1.703125 
L 7.71875 11.625 
Q 12.109375 9.234375 16.796875 8.0625 
Q 21.484375 6.890625 26.703125 6.890625 
Q 35.15625 6.890625 40.078125 11.328125 
Q 45.015625 15.765625 45.015625 23.390625 
Q 45.015625 31 40.078125 35.4375 
Q 35.15625 39.890625 26.703125 39.890625 
Q 22.75 39.890625 18.8125 39.015625 
Q 14.890625 38.140625 10.796875 36.28125 
z
" id="DejaVuSans-53"/>
       <path d="M 19.1875 8.296875 
L 53.609375 8.296875 
L 53.609375 0 
L 7.328125 0 
L 7.328125 8.296875 
Q 12.9375 14.109375 22.625 23.890625 
Q 32.328125 33.6875 34.8125 36.53125 
Q 39.546875 41.84375 41.421875 45.53125 
Q 43.3125 49.21875 43.3125 52.78125 
Q 43.3125 58.59375 39.234375 62.25 
Q 35.15625 65.921875 28.609375 65.921875 
Q 23.96875 65.921875 18.8125 64.3125 
Q 13.671875 62.703125 7.8125 59.421875 
L 7.8125 69.390625 
Q 13.765625 71.78125 18.9375 73 
Q 24.125 74.21875 28.421875 74.21875 
Q 39.75 74.21875 46.484375 68.546875 
Q 53.21875 62.890625 53.21875 53.421875 
Q 53.21875 48.921875 51.53125 44.890625 
Q 49.859375 40.875 45.40625 35.40625 
Q 44.1875 33.984375 37.640625 27.21875 
Q 31.109375 20.453125 19.1875 8.296875 
z
" id="DejaVuSans-50"/>
      </defs>
      <g transform="translate(58.354687 198.680171)scale(0.1 -0.1)">
       <use xlink:href="#DejaVuSans-65"/>
       <use x="68.408203" xlink:href="#DejaVuSans-76"/>
       <use x="124.121094" xlink:href="#DejaVuSans-68"/>
       <use x="201.123047" xlink:href="#DejaVuSans-45"/>
       <use x="237.207031" xlink:href="#DejaVuSans-53"/>
       <use x="300.830078" xlink:href="#DejaVuSans-50"/>
      </g>
     </g>
    </g>
    <g id="ytick_7">
     <g id="line2d_23">
      <path clip-path="url(#pa7cd56e642)" d="M 101.8 183.004762 
L 416.942339 183.004762 
" style="fill:none;stroke:#b0b0b0;stroke-linecap:square;stroke-width:0.8;"/>
     </g>
     <g id="line2d_24">
      <g>
       <use style="stroke:#000000;stroke-width:0.8;" x="101.8" xlink:href="#mbdf0cb959c" y="183.004762"/>
      </g>
     </g>
     <g id="text_12">
      <!-- LSD -->
      <defs>
       <path d="M 53.515625 70.515625 
L 53.515625 60.890625 
Q 47.90625 63.578125 42.921875 64.890625 
Q 37.9375 66.21875 33.296875 66.21875 
Q 25.25 66.21875 20.875 63.09375 
Q 16.5 59.96875 16.5 54.203125 
Q 16.5 49.359375 19.40625 46.890625 
Q 22.3125 44.4375 30.421875 42.921875 
L 36.375 41.703125 
Q 47.40625 39.59375 52.65625 34.296875 
Q 57.90625 29 57.90625 20.125 
Q 57.90625 9.515625 50.796875 4.046875 
Q 43.703125 -1.421875 29.984375 -1.421875 
Q 24.8125 -1.421875 18.96875 -0.25 
Q 13.140625 0.921875 6.890625 3.21875 
L 6.890625 13.375 
Q 12.890625 10.015625 18.65625 8.296875 
Q 24.421875 6.59375 29.984375 6.59375 
Q 38.421875 6.59375 43.015625 9.90625 
Q 47.609375 13.234375 47.609375 19.390625 
Q 47.609375 24.75 44.3125 27.78125 
Q 41.015625 30.8125 33.5 32.328125 
L 27.484375 33.5 
Q 16.453125 35.6875 11.515625 40.375 
Q 6.59375 45.0625 6.59375 53.421875 
Q 6.59375 63.09375 13.40625 68.65625 
Q 20.21875 74.21875 32.171875 74.21875 
Q 37.3125 74.21875 42.625 73.28125 
Q 47.953125 72.359375 53.515625 70.515625 
z
" id="DejaVuSans-83"/>
      </defs>
      <g transform="translate(75.179688 186.803981)scale(0.1 -0.1)">
       <use xlink:href="#DejaVuSans-76"/>
       <use x="55.712891" xlink:href="#DejaVuSans-83"/>
       <use x="119.189453" xlink:href="#DejaVuSans-68"/>
      </g>
     </g>
    </g>
    <g id="ytick_8">
     <g id="line2d_25">
      <path clip-path="url(#pa7cd56e642)" d="M 101.8 171.128571 
L 416.942339 171.128571 
" style="fill:none;stroke:#b0b0b0;stroke-linecap:square;stroke-width:0.8;"/>
     </g>
     <g id="line2d_26">
      <g>
       <use style="stroke:#000000;stroke-width:0.8;" x="101.8" xlink:href="#mbdf0cb959c" y="171.128571"/>
      </g>
     </g>
     <g id="text_13">
      <!-- MLD-41 -->
      <defs>
       <path d="M 9.8125 72.90625 
L 24.515625 72.90625 
L 43.109375 23.296875 
L 61.8125 72.90625 
L 76.515625 72.90625 
L 76.515625 0 
L 66.890625 0 
L 66.890625 64.015625 
L 48.09375 14.015625 
L 38.1875 14.015625 
L 19.390625 64.015625 
L 19.390625 0 
L 9.8125 0 
z
" id="DejaVuSans-77"/>
       <path d="M 37.796875 64.3125 
L 12.890625 25.390625 
L 37.796875 25.390625 
z
M 35.203125 72.90625 
L 47.609375 72.90625 
L 47.609375 25.390625 
L 58.015625 25.390625 
L 58.015625 17.1875 
L 47.609375 17.1875 
L 47.609375 0 
L 37.796875 0 
L 37.796875 17.1875 
L 4.890625 17.1875 
L 4.890625 26.703125 
z
" id="DejaVuSans-52"/>
      </defs>
      <g transform="translate(56.567187 174.92779)scale(0.1 -0.1)">
       <use xlink:href="#DejaVuSans-77"/>
       <use x="86.279297" xlink:href="#DejaVuSans-76"/>
       <use x="141.992188" xlink:href="#DejaVuSans-68"/>
       <use x="218.994141" xlink:href="#DejaVuSans-45"/>
       <use x="255.078125" xlink:href="#DejaVuSans-52"/>
       <use x="318.701172" xlink:href="#DejaVuSans-49"/>
      </g>
     </g>
    </g>
    <g id="ytick_9">
     <g id="line2d_27">
      <path clip-path="url(#pa7cd56e642)" d="M 101.8 159.252381 
L 416.942339 159.252381 
" style="fill:none;stroke:#b0b0b0;stroke-linecap:square;stroke-width:0.8;"/>
     </g>
     <g id="line2d_28">
      <g>
       <use style="stroke:#000000;stroke-width:0.8;" x="101.8" xlink:href="#mbdf0cb959c" y="159.252381"/>
      </g>
     </g>
     <g id="text_14">
      <!-- LSP -->
      <g transform="translate(76.85 163.0516)scale(0.1 -0.1)">
       <use xlink:href="#DejaVuSans-76"/>
       <use x="55.712891" xlink:href="#DejaVuSans-83"/>
       <use x="119.189453" xlink:href="#DejaVuSans-80"/>
      </g>
     </g>
    </g>
    <g id="ytick_10">
     <g id="line2d_29">
      <path clip-path="url(#pa7cd56e642)" d="M 101.8 147.37619 
L 416.942339 147.37619 
" style="fill:none;stroke:#b0b0b0;stroke-linecap:square;stroke-width:0.8;"/>
     </g>
     <g id="line2d_30">
      <g>
       <use style="stroke:#000000;stroke-width:0.8;" x="101.8" xlink:href="#mbdf0cb959c" y="147.37619"/>
      </g>
     </g>
     <g id="text_15">
      <!-- AL-LAD -->
      <g transform="translate(58.617187 151.175409)scale(0.1 -0.1)">
       <use xlink:href="#DejaVuSans-65"/>
       <use x="68.408203" xlink:href="#DejaVuSans-76"/>
       <use x="122.371094" xlink:href="#DejaVuSans-45"/>
       <use x="158.455078" xlink:href="#DejaVuSans-76"/>
       <use x="216.417969" xlink:href="#DejaVuSans-65"/>
       <use x="284.826172" xlink:href="#DejaVuSans-68"/>
      </g>
     </g>
    </g>
    <g id="ytick_11">
     <g id="line2d_31">
      <path clip-path="url(#pa7cd56e642)" d="M 101.8 135.5 
L 416.942339 135.5 
" style="fill:none;stroke:#b0b0b0;stroke-linecap:square;stroke-width:0.8;"/>
     </g>
     <g id="line2d_32">
      <g>
       <use style="stroke:#000000;stroke-width:0.8;" x="101.8" xlink:href="#mbdf0cb959c" y="135.5"/>
      </g>
     </g>
     <g id="text_16">
      <!-- LSB -->
      <g transform="translate(76.01875 139.299219)scale(0.1 -0.1)">
       <use xlink:href="#DejaVuSans-76"/>
       <use x="55.712891" xlink:href="#DejaVuSans-83"/>
       <use x="119.189453" xlink:href="#DejaVuSans-66"/>
      </g>
     </g>
    </g>
    <g id="ytick_12">
     <g id="line2d_33">
      <path clip-path="url(#pa7cd56e642)" d="M 101.8 123.62381 
L 416.942339 123.62381 
" style="fill:none;stroke:#b0b0b0;stroke-linecap:square;stroke-width:0.8;"/>
     </g>
     <g id="line2d_34">
      <g>
       <use style="stroke:#000000;stroke-width:0.8;" x="101.8" xlink:href="#mbdf0cb959c" y="123.62381"/>
      </g>
     </g>
     <g id="text_17">
      <!-- LSA -->
      <g transform="translate(75.851562 127.423028)scale(0.1 -0.1)">
       <use xlink:href="#DejaVuSans-76"/>
       <use x="55.712891" xlink:href="#DejaVuSans-83"/>
       <use x="121.064453" xlink:href="#DejaVuSans-65"/>
      </g>
     </g>
    </g>
    <g id="ytick_13">
     <g id="line2d_35">
      <path clip-path="url(#pa7cd56e642)" d="M 101.8 111.747619 
L 416.942339 111.747619 
" style="fill:none;stroke:#b0b0b0;stroke-linecap:square;stroke-width:0.8;"/>
     </g>
     <g id="line2d_36">
      <g>
       <use style="stroke:#000000;stroke-width:0.8;" x="101.8" xlink:href="#mbdf0cb959c" y="111.747619"/>
      </g>
     </g>
     <g id="text_18">
      <!-- LSM-75 -->
      <g transform="translate(57.91875 115.546838)scale(0.1 -0.1)">
       <use xlink:href="#DejaVuSans-76"/>
       <use x="55.712891" xlink:href="#DejaVuSans-83"/>
       <use x="119.189453" xlink:href="#DejaVuSans-77"/>
       <use x="205.46875" xlink:href="#DejaVuSans-45"/>
       <use x="241.552734" xlink:href="#DejaVuSans-55"/>
       <use x="305.175781" xlink:href="#DejaVuSans-53"/>
      </g>
     </g>
    </g>
    <g id="ytick_14">
     <g id="line2d_37">
      <path clip-path="url(#pa7cd56e642)" d="M 101.8 99.871429 
L 416.942339 99.871429 
" style="fill:none;stroke:#b0b0b0;stroke-linecap:square;stroke-width:0.8;"/>
     </g>
     <g id="line2d_38">
      <g>
       <use style="stroke:#000000;stroke-width:0.8;" x="101.8" xlink:href="#mbdf0cb959c" y="99.871429"/>
      </g>
     </g>
     <g id="text_19">
      <!-- Jimscaline -->
      <defs>
       <path d="M 9.8125 72.90625 
L 19.671875 72.90625 
L 19.671875 5.078125 
Q 19.671875 -8.109375 14.671875 -14.0625 
Q 9.671875 -20.015625 -1.421875 -20.015625 
L -5.171875 -20.015625 
L -5.171875 -11.71875 
L -2.09375 -11.71875 
Q 4.4375 -11.71875 7.125 -8.046875 
Q 9.8125 -4.390625 9.8125 5.078125 
z
" id="DejaVuSans-74"/>
       <path d="M 52 44.1875 
Q 55.375 50.25 60.0625 53.125 
Q 64.75 56 71.09375 56 
Q 79.640625 56 84.28125 50.015625 
Q 88.921875 44.046875 88.921875 33.015625 
L 88.921875 0 
L 79.890625 0 
L 79.890625 32.71875 
Q 79.890625 40.578125 77.09375 44.375 
Q 74.3125 48.1875 68.609375 48.1875 
Q 61.625 48.1875 57.5625 43.546875 
Q 53.515625 38.921875 53.515625 30.90625 
L 53.515625 0 
L 44.484375 0 
L 44.484375 32.71875 
Q 44.484375 40.625 41.703125 44.40625 
Q 38.921875 48.1875 33.109375 48.1875 
Q 26.21875 48.1875 22.15625 43.53125 
Q 18.109375 38.875 18.109375 30.90625 
L 18.109375 0 
L 9.078125 0 
L 9.078125 54.6875 
L 18.109375 54.6875 
L 18.109375 46.1875 
Q 21.1875 51.21875 25.484375 53.609375 
Q 29.78125 56 35.6875 56 
Q 41.65625 56 45.828125 52.96875 
Q 50 49.953125 52 44.1875 
z
" id="DejaVuSans-109"/>
      </defs>
      <g transform="translate(44.448437 103.670647)scale(0.1 -0.1)">
       <use xlink:href="#DejaVuSans-74"/>
       <use x="29.492188" xlink:href="#DejaVuSans-105"/>
       <use x="57.275391" xlink:href="#DejaVuSans-109"/>
       <use x="154.6875" xlink:href="#DejaVuSans-115"/>
       <use x="206.787109" xlink:href="#DejaVuSans-99"/>
       <use x="261.767578" xlink:href="#DejaVuSans-97"/>
       <use x="323.046875" xlink:href="#DejaVuSans-108"/>
       <use x="350.830078" xlink:href="#DejaVuSans-105"/>
       <use x="378.613281" xlink:href="#DejaVuSans-110"/>
       <use x="441.992188" xlink:href="#DejaVuSans-101"/>
      </g>
     </g>
    </g>
    <g id="ytick_15">
     <g id="line2d_39">
      <path clip-path="url(#pa7cd56e642)" d="M 101.8 87.995238 
L 416.942339 87.995238 
" style="fill:none;stroke:#b0b0b0;stroke-linecap:square;stroke-width:0.8;"/>
     </g>
     <g id="line2d_40">
      <g>
       <use style="stroke:#000000;stroke-width:0.8;" x="101.8" xlink:href="#mbdf0cb959c" y="87.995238"/>
      </g>
     </g>
     <g id="text_20">
      <!-- Escaline -->
      <defs>
       <path d="M 9.8125 72.90625 
L 55.90625 72.90625 
L 55.90625 64.59375 
L 19.671875 64.59375 
L 19.671875 43.015625 
L 54.390625 43.015625 
L 54.390625 34.71875 
L 19.671875 34.71875 
L 19.671875 8.296875 
L 56.78125 8.296875 
L 56.78125 0 
L 9.8125 0 
z
" id="DejaVuSans-69"/>
      </defs>
      <g transform="translate(53.598437 91.794457)scale(0.1 -0.1)">
       <use xlink:href="#DejaVuSans-69"/>
       <use x="63.183594" xlink:href="#DejaVuSans-115"/>
       <use x="115.283203" xlink:href="#DejaVuSans-99"/>
       <use x="170.263672" xlink:href="#DejaVuSans-97"/>
       <use x="231.542969" xlink:href="#DejaVuSans-108"/>
       <use x="259.326172" xlink:href="#DejaVuSans-105"/>
       <use x="287.109375" xlink:href="#DejaVuSans-110"/>
       <use x="350.488281" xlink:href="#DejaVuSans-101"/>
      </g>
     </g>
    </g>
    <g id="ytick_16">
     <g id="line2d_41">
      <path clip-path="url(#pa7cd56e642)" d="M 101.8 76.119048 
L 416.942339 76.119048 
" style="fill:none;stroke:#b0b0b0;stroke-linecap:square;stroke-width:0.8;"/>
     </g>
     <g id="line2d_42">
      <g>
       <use style="stroke:#000000;stroke-width:0.8;" x="101.8" xlink:href="#mbdf0cb959c" y="76.119048"/>
      </g>
     </g>
     <g id="text_21">
      <!-- Mescaline -->
      <g transform="translate(45.135937 79.918266)scale(0.1 -0.1)">
       <use xlink:href="#DejaVuSans-77"/>
       <use x="86.279297" xlink:href="#DejaVuSans-101"/>
       <use x="147.802734" xlink:href="#DejaVuSans-115"/>
       <use x="199.902344" xlink:href="#DejaVuSans-99"/>
       <use x="254.882812" xlink:href="#DejaVuSans-97"/>
       <use x="316.162109" xlink:href="#DejaVuSans-108"/>
       <use x="343.945312" xlink:href="#DejaVuSans-105"/>
       <use x="371.728516" xlink:href="#DejaVuSans-110"/>
       <use x="435.107422" xlink:href="#DejaVuSans-101"/>
      </g>
     </g>
    </g>
    <g id="ytick_17">
     <g id="line2d_43">
      <path clip-path="url(#pa7cd56e642)" d="M 101.8 64.242857 
L 416.942339 64.242857 
" style="fill:none;stroke:#b0b0b0;stroke-linecap:square;stroke-width:0.8;"/>
     </g>
     <g id="line2d_44">
      <g>
       <use style="stroke:#000000;stroke-width:0.8;" x="101.8" xlink:href="#mbdf0cb959c" y="64.242857"/>
      </g>
     </g>
     <g id="text_22">
      <!-- Proscaline -->
      <g transform="translate(44.057812 68.042076)scale(0.1 -0.1)">
       <use xlink:href="#DejaVuSans-80"/>
       <use x="58.552734" xlink:href="#DejaVuSans-114"/>
       <use x="97.416016" xlink:href="#DejaVuSans-111"/>
       <use x="158.597656" xlink:href="#DejaVuSans-115"/>
       <use x="210.697266" xlink:href="#DejaVuSans-99"/>
       <use x="265.677734" xlink:href="#DejaVuSans-97"/>
       <use x="326.957031" xlink:href="#DejaVuSans-108"/>
       <use x="354.740234" xlink:href="#DejaVuSans-105"/>
       <use x="382.523438" xlink:href="#DejaVuSans-110"/>
       <use x="445.902344" xlink:href="#DejaVuSans-101"/>
      </g>
     </g>
    </g>
    <g id="ytick_18">
     <g id="line2d_45">
      <path clip-path="url(#pa7cd56e642)" d="M 101.8 52.366667 
L 416.942339 52.366667 
" style="fill:none;stroke:#b0b0b0;stroke-linecap:square;stroke-width:0.8;"/>
     </g>
     <g id="line2d_46">
      <g>
       <use style="stroke:#000000;stroke-width:0.8;" x="101.8" xlink:href="#mbdf0cb959c" y="52.366667"/>
      </g>
     </g>
     <g id="text_23">
      <!-- Trisescaline -->
      <defs>
       <path d="M -0.296875 72.90625 
L 61.375 72.90625 
L 61.375 64.59375 
L 35.5 64.59375 
L 35.5 0 
L 25.59375 0 
L 25.59375 64.59375 
L -0.296875 64.59375 
z
" id="DejaVuSans-84"/>
      </defs>
      <g transform="translate(37.032812 56.165885)scale(0.1 -0.1)">
       <use xlink:href="#DejaVuSans-84"/>
       <use x="46.333984" xlink:href="#DejaVuSans-114"/>
       <use x="87.447266" xlink:href="#DejaVuSans-105"/>
       <use x="115.230469" xlink:href="#DejaVuSans-115"/>
       <use x="167.330078" xlink:href="#DejaVuSans-101"/>
       <use x="228.853516" xlink:href="#DejaVuSans-115"/>
       <use x="280.953125" xlink:href="#DejaVuSans-99"/>
       <use x="335.933594" xlink:href="#DejaVuSans-97"/>
       <use x="397.212891" xlink:href="#DejaVuSans-108"/>
       <use x="424.996094" xlink:href="#DejaVuSans-105"/>
       <use x="452.779297" xlink:href="#DejaVuSans-110"/>
       <use x="516.158203" xlink:href="#DejaVuSans-101"/>
      </g>
     </g>
    </g>
    <g id="ytick_19">
     <g id="line2d_47">
      <path clip-path="url(#pa7cd56e642)" d="M 101.8 40.490476 
L 416.942339 40.490476 
" style="fill:none;stroke:#b0b0b0;stroke-linecap:square;stroke-width:0.8;"/>
     </g>
     <g id="line2d_48">
      <g>
       <use style="stroke:#000000;stroke-width:0.8;" x="101.8" xlink:href="#mbdf0cb959c" y="40.490476"/>
      </g>
     </g>
     <g id="text_24">
      <!-- Isomescaline -->
      <defs>
       <path d="M 9.8125 72.90625 
L 19.671875 72.90625 
L 19.671875 0 
L 9.8125 0 
z
" id="DejaVuSans-73"/>
      </defs>
      <g transform="translate(29.745312 44.289695)scale(0.1 -0.1)">
       <use xlink:href="#DejaVuSans-73"/>
       <use x="29.492188" xlink:href="#DejaVuSans-115"/>
       <use x="81.591797" xlink:href="#DejaVuSans-111"/>
       <use x="142.773438" xlink:href="#DejaVuSans-109"/>
       <use x="240.185547" xlink:href="#DejaVuSans-101"/>
       <use x="301.708984" xlink:href="#DejaVuSans-115"/>
       <use x="353.808594" xlink:href="#DejaVuSans-99"/>
       <use x="408.789062" xlink:href="#DejaVuSans-97"/>
       <use x="470.068359" xlink:href="#DejaVuSans-108"/>
       <use x="497.851562" xlink:href="#DejaVuSans-105"/>
       <use x="525.634766" xlink:href="#DejaVuSans-110"/>
       <use x="589.013672" xlink:href="#DejaVuSans-101"/>
      </g>
     </g>
    </g>
    <g id="ytick_20">
     <g id="line2d_49">
      <path clip-path="url(#pa7cd56e642)" d="M 101.8 28.614286 
L 416.942339 28.614286 
" style="fill:none;stroke:#b0b0b0;stroke-linecap:square;stroke-width:0.8;"/>
     </g>
     <g id="line2d_50">
      <g>
       <use style="stroke:#000000;stroke-width:0.8;" x="101.8" xlink:href="#mbdf0cb959c" y="28.614286"/>
      </g>
     </g>
     <g id="text_25">
      <!-- Methalylescaline -->
      <defs>
       <path d="M 54.890625 33.015625 
L 54.890625 0 
L 45.90625 0 
L 45.90625 32.71875 
Q 45.90625 40.484375 42.875 44.328125 
Q 39.84375 48.1875 33.796875 48.1875 
Q 26.515625 48.1875 22.3125 43.546875 
Q 18.109375 38.921875 18.109375 30.90625 
L 18.109375 0 
L 9.078125 0 
L 9.078125 75.984375 
L 18.109375 75.984375 
L 18.109375 46.1875 
Q 21.34375 51.125 25.703125 53.5625 
Q 30.078125 56 35.796875 56 
Q 45.21875 56 50.046875 50.171875 
Q 54.890625 44.34375 54.890625 33.015625 
z
" id="DejaVuSans-104"/>
      </defs>
      <g transform="translate(11.121875 32.413504)scale(0.1 -0.1)">
       <use xlink:href="#DejaVuSans-77"/>
       <use x="86.279297" xlink:href="#DejaVuSans-101"/>
       <use x="147.802734" xlink:href="#DejaVuSans-116"/>
       <use x="187.011719" xlink:href="#DejaVuSans-104"/>
       <use x="250.390625" xlink:href="#DejaVuSans-97"/>
       <use x="311.669922" xlink:href="#DejaVuSans-108"/>
       <use x="339.453125" xlink:href="#DejaVuSans-121"/>
       <use x="398.632812" xlink:href="#DejaVuSans-108"/>
       <use x="426.416016" xlink:href="#DejaVuSans-101"/>
       <use x="487.939453" xlink:href="#DejaVuSans-115"/>
       <use x="540.039062" xlink:href="#DejaVuSans-99"/>
       <use x="595.019531" xlink:href="#DejaVuSans-97"/>
       <use x="656.298828" xlink:href="#DejaVuSans-108"/>
       <use x="684.082031" xlink:href="#DejaVuSans-105"/>
       <use x="711.865234" xlink:href="#DejaVuSans-110"/>
       <use x="775.244141" xlink:href="#DejaVuSans-101"/>
      </g>
     </g>
    </g>
    <g id="ytick_21">
     <g id="line2d_51">
      <path clip-path="url(#pa7cd56e642)" d="M 101.8 16.738095 
L 416.942339 16.738095 
" style="fill:none;stroke:#b0b0b0;stroke-linecap:square;stroke-width:0.8;"/>
     </g>
     <g id="line2d_52">
      <g>
       <use style="stroke:#000000;stroke-width:0.8;" x="101.8" xlink:href="#mbdf0cb959c" y="16.738095"/>
      </g>
     </g>
     <g id="text_26">
      <!-- Lophophine -->
      <defs>
       <path d="M 18.109375 8.203125 
L 18.109375 -20.796875 
L 9.078125 -20.796875 
L 9.078125 54.6875 
L 18.109375 54.6875 
L 18.109375 46.390625 
Q 20.953125 51.265625 25.265625 53.625 
Q 29.59375 56 35.59375 56 
Q 45.5625 56 51.78125 48.09375 
Q 58.015625 40.1875 58.015625 27.296875 
Q 58.015625 14.40625 51.78125 6.484375 
Q 45.5625 -1.421875 35.59375 -1.421875 
Q 29.59375 -1.421875 25.265625 0.953125 
Q 20.953125 3.328125 18.109375 8.203125 
z
M 48.6875 27.296875 
Q 48.6875 37.203125 44.609375 42.84375 
Q 40.53125 48.484375 33.40625 48.484375 
Q 26.265625 48.484375 22.1875 42.84375 
Q 18.109375 37.203125 18.109375 27.296875 
Q 18.109375 17.390625 22.1875 11.75 
Q 26.265625 6.109375 33.40625 6.109375 
Q 40.53125 6.109375 44.609375 11.75 
Q 48.6875 17.390625 48.6875 27.296875 
z
" id="DejaVuSans-112"/>
      </defs>
      <g transform="translate(36.525 20.537314)scale(0.1 -0.1)">
       <use xlink:href="#DejaVuSans-76"/>
       <use x="53.962891" xlink:href="#DejaVuSans-111"/>
       <use x="115.144531" xlink:href="#DejaVuSans-112"/>
       <use x="178.621094" xlink:href="#DejaVuSans-104"/>
       <use x="242" xlink:href="#DejaVuSans-111"/>
       <use x="303.181641" xlink:href="#DejaVuSans-112"/>
       <use x="366.658203" xlink:href="#DejaVuSans-104"/>
       <use x="430.037109" xlink:href="#DejaVuSans-105"/>
       <use x="457.820312" xlink:href="#DejaVuSans-110"/>
       <use x="521.199219" xlink:href="#DejaVuSans-101"/>
      </g>
     </g>
    </g>
   </g>
   <g id="line2d_53">
    <path clip-path="url(#pa7cd56e642)" d="M 152.671922 257.230952 
L 152.671922 251.292857 
L 184.069706 251.292857 
L 184.069706 257.230952 
L 152.671922 257.230952 
" style="fill:none;stroke:#1f77b4;stroke-linecap:square;"/>
   </g>
   <g id="line2d_54">
    <path clip-path="url(#pa7cd56e642)" d="M 152.671922 254.261905 
L 128.333162 254.261905 
" style="fill:none;stroke:#1f77b4;stroke-linecap:square;"/>
   </g>
   <g id="line2d_55">
    <path clip-path="url(#pa7cd56e642)" d="M 184.069706 254.261905 
L 228.943806 254.261905 
" style="fill:none;stroke:#1f77b4;stroke-linecap:square;"/>
   </g>
   <g id="line2d_56">
    <path clip-path="url(#pa7cd56e642)" d="M 128.333162 255.746429 
L 128.333162 252.777381 
" style="fill:none;stroke:#000000;stroke-linecap:square;"/>
   </g>
   <g id="line2d_57">
    <path clip-path="url(#pa7cd56e642)" d="M 228.943806 255.746429 
L 228.943806 252.777381 
" style="fill:none;stroke:#000000;stroke-linecap:square;"/>
   </g>
   <g id="line2d_58">
    <path clip-path="url(#pa7cd56e642)" d="M 153.751906 245.354762 
L 153.751906 239.416667 
L 184.805347 239.416667 
L 184.805347 245.354762 
L 153.751906 245.354762 
" style="fill:none;stroke:#1f77b4;stroke-linecap:square;"/>
   </g>
   <g id="line2d_59">
    <path clip-path="url(#pa7cd56e642)" d="M 153.751906 242.385714 
L 116.124652 242.385714 
" style="fill:none;stroke:#1f77b4;stroke-linecap:square;"/>
   </g>
   <g id="line2d_60">
    <path clip-path="url(#pa7cd56e642)" d="M 184.805347 242.385714 
L 215.420534 242.385714 
" style="fill:none;stroke:#1f77b4;stroke-linecap:square;"/>
   </g>
   <g id="line2d_61">
    <path clip-path="url(#pa7cd56e642)" d="M 116.124652 243.870238 
L 116.124652 240.90119 
" style="fill:none;stroke:#000000;stroke-linecap:square;"/>
   </g>
   <g id="line2d_62">
    <path clip-path="url(#pa7cd56e642)" d="M 215.420534 243.870238 
L 215.420534 240.90119 
" style="fill:none;stroke:#000000;stroke-linecap:square;"/>
   </g>
   <g id="line2d_63">
    <path clip-path="url(#pa7cd56e642)" d="M 156.334475 233.478571 
L 156.334475 227.540476 
L 184.367093 227.540476 
L 184.367093 233.478571 
L 156.334475 233.478571 
" style="fill:none;stroke:#1f77b4;stroke-linecap:square;"/>
   </g>
   <g id="line2d_64">
    <path clip-path="url(#pa7cd56e642)" d="M 156.334475 230.509524 
L 124.576697 230.509524 
" style="fill:none;stroke:#1f77b4;stroke-linecap:square;"/>
   </g>
   <g id="line2d_65">
    <path clip-path="url(#pa7cd56e642)" d="M 184.367093 230.509524 
L 219.427429 230.509524 
" style="fill:none;stroke:#1f77b4;stroke-linecap:square;"/>
   </g>
   <g id="line2d_66">
    <path clip-path="url(#pa7cd56e642)" d="M 124.576697 231.994048 
L 124.576697 229.025 
" style="fill:none;stroke:#000000;stroke-linecap:square;"/>
   </g>
   <g id="line2d_67">
    <path clip-path="url(#pa7cd56e642)" d="M 219.427429 231.994048 
L 219.427429 229.025 
" style="fill:none;stroke:#000000;stroke-linecap:square;"/>
   </g>
   <g id="line2d_68">
    <path clip-path="url(#pa7cd56e642)" d="M 152.218016 221.602381 
L 152.218016 215.664286 
L 183.114938 215.664286 
L 183.114938 221.602381 
L 152.218016 221.602381 
" style="fill:none;stroke:#1f77b4;stroke-linecap:square;"/>
   </g>
   <g id="line2d_69">
    <path clip-path="url(#pa7cd56e642)" d="M 152.218016 218.633333 
L 124.576697 218.633333 
" style="fill:none;stroke:#1f77b4;stroke-linecap:square;"/>
   </g>
   <g id="line2d_70">
    <path clip-path="url(#pa7cd56e642)" d="M 183.114938 218.633333 
L 220.8048 218.633333 
" style="fill:none;stroke:#1f77b4;stroke-linecap:square;"/>
   </g>
   <g id="line2d_71">
    <path clip-path="url(#pa7cd56e642)" d="M 124.576697 220.117857 
L 124.576697 217.14881 
" style="fill:none;stroke:#000000;stroke-linecap:square;"/>
   </g>
   <g id="line2d_72">
    <path clip-path="url(#pa7cd56e642)" d="M 220.8048 220.117857 
L 220.8048 217.14881 
" style="fill:none;stroke:#000000;stroke-linecap:square;"/>
   </g>
   <g id="line2d_73">
    <path clip-path="url(#pa7cd56e642)" d="M 157.25794 209.72619 
L 157.25794 203.788095 
L 184.774043 203.788095 
L 184.774043 209.72619 
L 157.25794 209.72619 
" style="fill:none;stroke:#1f77b4;stroke-linecap:square;"/>
   </g>
   <g id="line2d_74">
    <path clip-path="url(#pa7cd56e642)" d="M 157.25794 206.757143 
L 123.888012 206.757143 
" style="fill:none;stroke:#1f77b4;stroke-linecap:square;"/>
   </g>
   <g id="line2d_75">
    <path clip-path="url(#pa7cd56e642)" d="M 184.774043 206.757143 
L 213.041439 206.757143 
" style="fill:none;stroke:#1f77b4;stroke-linecap:square;"/>
   </g>
   <g id="line2d_76">
    <path clip-path="url(#pa7cd56e642)" d="M 123.888012 208.241667 
L 123.888012 205.272619 
" style="fill:none;stroke:#000000;stroke-linecap:square;"/>
   </g>
   <g id="line2d_77">
    <path clip-path="url(#pa7cd56e642)" d="M 213.041439 208.241667 
L 213.041439 205.272619 
" style="fill:none;stroke:#000000;stroke-linecap:square;"/>
   </g>
   <g id="line2d_78">
    <path clip-path="url(#pa7cd56e642)" d="M 230.227265 197.85 
L 230.227265 191.911905 
L 263.957187 191.911905 
L 263.957187 197.85 
L 230.227265 197.85 
" style="fill:none;stroke:#1f77b4;stroke-linecap:square;"/>
   </g>
   <g id="line2d_79">
    <path clip-path="url(#pa7cd56e642)" d="M 230.227265 194.880952 
L 194.947801 194.880952 
" style="fill:none;stroke:#1f77b4;stroke-linecap:square;"/>
   </g>
   <g id="line2d_80">
    <path clip-path="url(#pa7cd56e642)" d="M 263.957187 194.880952 
L 309.457365 194.880952 
" style="fill:none;stroke:#1f77b4;stroke-linecap:square;"/>
   </g>
   <g id="line2d_81">
    <path clip-path="url(#pa7cd56e642)" d="M 194.947801 196.365476 
L 194.947801 193.396429 
" style="fill:none;stroke:#000000;stroke-linecap:square;"/>
   </g>
   <g id="line2d_82">
    <path clip-path="url(#pa7cd56e642)" d="M 309.457365 196.365476 
L 309.457365 193.396429 
" style="fill:none;stroke:#000000;stroke-linecap:square;"/>
   </g>
   <g id="line2d_83">
    <path clip-path="url(#pa7cd56e642)" d="M 231.542028 185.97381 
L 231.542028 180.035714 
L 263.706756 180.035714 
L 263.706756 185.97381 
L 231.542028 185.97381 
" style="fill:none;stroke:#1f77b4;stroke-linecap:square;"/>
   </g>
   <g id="line2d_84">
    <path clip-path="url(#pa7cd56e642)" d="M 231.542028 183.004762 
L 185.431424 183.004762 
" style="fill:none;stroke:#1f77b4;stroke-linecap:square;"/>
   </g>
   <g id="line2d_85">
    <path clip-path="url(#pa7cd56e642)" d="M 263.706756 183.004762 
L 298.313186 183.004762 
" style="fill:none;stroke:#1f77b4;stroke-linecap:square;"/>
   </g>
   <g id="line2d_86">
    <path clip-path="url(#pa7cd56e642)" d="M 185.431424 184.489286 
L 185.431424 181.520238 
" style="fill:none;stroke:#000000;stroke-linecap:square;"/>
   </g>
   <g id="line2d_87">
    <path clip-path="url(#pa7cd56e642)" d="M 298.313186 184.489286 
L 298.313186 181.520238 
" style="fill:none;stroke:#000000;stroke-linecap:square;"/>
   </g>
   <g id="line2d_88">
    <path clip-path="url(#pa7cd56e642)" d="M 235.955874 174.097619 
L 235.955874 168.159524 
L 270.640564 168.159524 
L 270.640564 174.097619 
L 235.955874 174.097619 
" style="fill:none;stroke:#1f77b4;stroke-linecap:square;"/>
   </g>
   <g id="line2d_89">
    <path clip-path="url(#pa7cd56e642)" d="M 235.955874 171.128571 
L 209.723229 171.128571 
" style="fill:none;stroke:#1f77b4;stroke-linecap:square;"/>
   </g>
   <g id="line2d_90">
    <path clip-path="url(#pa7cd56e642)" d="M 270.640564 171.128571 
L 309.457365 171.128571 
" style="fill:none;stroke:#1f77b4;stroke-linecap:square;"/>
   </g>
   <g id="line2d_91">
    <path clip-path="url(#pa7cd56e642)" d="M 209.723229 172.613095 
L 209.723229 169.644048 
" style="fill:none;stroke:#000000;stroke-linecap:square;"/>
   </g>
   <g id="line2d_92">
    <path clip-path="url(#pa7cd56e642)" d="M 309.457365 172.613095 
L 309.457365 169.644048 
" style="fill:none;stroke:#000000;stroke-linecap:square;"/>
   </g>
   <g id="line2d_93">
    <path clip-path="url(#pa7cd56e642)" d="M 230.696823 162.221429 
L 230.696823 156.283333 
L 267.666696 156.283333 
L 267.666696 162.221429 
L 230.696823 162.221429 
" style="fill:none;stroke:#1f77b4;stroke-linecap:square;"/>
   </g>
   <g id="line2d_94">
    <path clip-path="url(#pa7cd56e642)" d="M 230.696823 159.252381 
L 184.304485 159.252381 
" style="fill:none;stroke:#1f77b4;stroke-linecap:square;"/>
   </g>
   <g id="line2d_95">
    <path clip-path="url(#pa7cd56e642)" d="M 267.666696 159.252381 
L 307.829563 159.252381 
" style="fill:none;stroke:#1f77b4;stroke-linecap:square;"/>
   </g>
   <g id="line2d_96">
    <path clip-path="url(#pa7cd56e642)" d="M 184.304485 160.736905 
L 184.304485 157.767857 
" style="fill:none;stroke:#000000;stroke-linecap:square;"/>
   </g>
   <g id="line2d_97">
    <path clip-path="url(#pa7cd56e642)" d="M 307.829563 160.736905 
L 307.829563 157.767857 
" style="fill:none;stroke:#000000;stroke-linecap:square;"/>
   </g>
   <g id="line2d_98">
    <path clip-path="url(#pa7cd56e642)" d="M 233.044613 150.345238 
L 233.044613 144.407143 
L 275.289189 144.407143 
L 275.289189 150.345238 
L 233.044613 150.345238 
" style="fill:none;stroke:#1f77b4;stroke-linecap:square;"/>
   </g>
   <g id="line2d_99">
    <path clip-path="url(#pa7cd56e642)" d="M 233.044613 147.37619 
L 195.636486 147.37619 
" style="fill:none;stroke:#1f77b4;stroke-linecap:square;"/>
   </g>
   <g id="line2d_100">
    <path clip-path="url(#pa7cd56e642)" d="M 275.289189 147.37619 
L 318.097233 147.37619 
" style="fill:none;stroke:#1f77b4;stroke-linecap:square;"/>
   </g>
   <g id="line2d_101">
    <path clip-path="url(#pa7cd56e642)" d="M 195.636486 148.860714 
L 195.636486 145.891667 
" style="fill:none;stroke:#000000;stroke-linecap:square;"/>
   </g>
   <g id="line2d_102">
    <path clip-path="url(#pa7cd56e642)" d="M 318.097233 148.860714 
L 318.097233 145.891667 
" style="fill:none;stroke:#000000;stroke-linecap:square;"/>
   </g>
   <g id="line2d_103">
    <path clip-path="url(#pa7cd56e642)" d="M 239.101913 138.469048 
L 239.101913 132.530952 
L 272.769227 132.530952 
L 272.769227 138.469048 
L 239.101913 138.469048 
" style="fill:none;stroke:#1f77b4;stroke-linecap:square;"/>
   </g>
   <g id="line2d_104">
    <path clip-path="url(#pa7cd56e642)" d="M 239.101913 135.5 
L 195.636486 135.5 
" style="fill:none;stroke:#1f77b4;stroke-linecap:square;"/>
   </g>
   <g id="line2d_105">
    <path clip-path="url(#pa7cd56e642)" d="M 272.769227 135.5 
L 301.380966 135.5 
" style="fill:none;stroke:#1f77b4;stroke-linecap:square;"/>
   </g>
   <g id="line2d_106">
    <path clip-path="url(#pa7cd56e642)" d="M 195.636486 136.984524 
L 195.636486 134.015476 
" style="fill:none;stroke:#000000;stroke-linecap:square;"/>
   </g>
   <g id="line2d_107">
    <path clip-path="url(#pa7cd56e642)" d="M 301.380966 136.984524 
L 301.380966 134.015476 
" style="fill:none;stroke:#000000;stroke-linecap:square;"/>
   </g>
   <g id="line2d_108">
    <path clip-path="url(#pa7cd56e642)" d="M 234.703719 126.592857 
L 234.703719 120.654762 
L 270.890995 120.654762 
L 270.890995 126.592857 
L 234.703719 126.592857 
" style="fill:none;stroke:#1f77b4;stroke-linecap:square;"/>
   </g>
   <g id="line2d_109">
    <path clip-path="url(#pa7cd56e642)" d="M 234.703719 123.62381 
L 201.271183 123.62381 
" style="fill:none;stroke:#1f77b4;stroke-linecap:square;"/>
   </g>
   <g id="line2d_110">
    <path clip-path="url(#pa7cd56e642)" d="M 270.890995 123.62381 
L 303.447021 123.62381 
" style="fill:none;stroke:#1f77b4;stroke-linecap:square;"/>
   </g>
   <g id="line2d_111">
    <path clip-path="url(#pa7cd56e642)" d="M 201.271183 125.108333 
L 201.271183 122.139286 
" style="fill:none;stroke:#000000;stroke-linecap:square;"/>
   </g>
   <g id="line2d_112">
    <path clip-path="url(#pa7cd56e642)" d="M 303.447021 125.108333 
L 303.447021 122.139286 
" style="fill:none;stroke:#000000;stroke-linecap:square;"/>
   </g>
   <g id="line2d_113">
    <path clip-path="url(#pa7cd56e642)" d="M 236.268912 114.716667 
L 236.268912 108.778571 
L 273.238785 108.778571 
L 273.238785 114.716667 
L 236.268912 114.716667 
" style="fill:none;stroke:#1f77b4;stroke-linecap:square;"/>
   </g>
   <g id="line2d_114">
    <path clip-path="url(#pa7cd56e642)" d="M 236.268912 111.747619 
L 195.636486 111.747619 
" style="fill:none;stroke:#1f77b4;stroke-linecap:square;"/>
   </g>
   <g id="line2d_115">
    <path clip-path="url(#pa7cd56e642)" d="M 273.238785 111.747619 
L 304.32353 111.747619 
" style="fill:none;stroke:#1f77b4;stroke-linecap:square;"/>
   </g>
   <g id="line2d_116">
    <path clip-path="url(#pa7cd56e642)" d="M 195.636486 113.232143 
L 195.636486 110.263095 
" style="fill:none;stroke:#000000;stroke-linecap:square;"/>
   </g>
   <g id="line2d_117">
    <path clip-path="url(#pa7cd56e642)" d="M 304.32353 113.232143 
L 304.32353 110.263095 
" style="fill:none;stroke:#000000;stroke-linecap:square;"/>
   </g>
   <g id="line2d_118">
    <path clip-path="url(#pa7cd56e642)" d="M 306.82784 102.840476 
L 306.82784 96.902381 
L 356.851427 96.902381 
L 356.851427 102.840476 
L 306.82784 102.840476 
" style="fill:none;stroke:#1f77b4;stroke-linecap:square;"/>
   </g>
   <g id="line2d_119">
    <path clip-path="url(#pa7cd56e642)" d="M 306.82784 99.871429 
L 257.242506 99.871429 
" style="fill:none;stroke:#1f77b4;stroke-linecap:square;"/>
   </g>
   <g id="line2d_120">
    <path clip-path="url(#pa7cd56e642)" d="M 356.851427 99.871429 
L 401.741179 99.871429 
" style="fill:none;stroke:#1f77b4;stroke-linecap:square;"/>
   </g>
   <g id="line2d_121">
    <path clip-path="url(#pa7cd56e642)" d="M 257.242506 101.355952 
L 257.242506 98.386905 
" style="fill:none;stroke:#000000;stroke-linecap:square;"/>
   </g>
   <g id="line2d_122">
    <path clip-path="url(#pa7cd56e642)" d="M 401.741179 101.355952 
L 401.741179 98.386905 
" style="fill:none;stroke:#000000;stroke-linecap:square;"/>
   </g>
   <g id="line2d_123">
    <path clip-path="url(#pa7cd56e642)" d="M 311.147774 90.964286 
L 311.147774 85.02619 
L 355.974919 85.02619 
L 355.974919 90.964286 
L 311.147774 90.964286 
" style="fill:none;stroke:#1f77b4;stroke-linecap:square;"/>
   </g>
   <g id="line2d_124">
    <path clip-path="url(#pa7cd56e642)" d="M 311.147774 87.995238 
L 267.071922 87.995238 
" style="fill:none;stroke:#1f77b4;stroke-linecap:square;"/>
   </g>
   <g id="line2d_125">
    <path clip-path="url(#pa7cd56e642)" d="M 355.974919 87.995238 
L 390.659609 87.995238 
" style="fill:none;stroke:#1f77b4;stroke-linecap:square;"/>
   </g>
   <g id="line2d_126">
    <path clip-path="url(#pa7cd56e642)" d="M 267.071922 89.479762 
L 267.071922 86.510714 
" style="fill:none;stroke:#000000;stroke-linecap:square;"/>
   </g>
   <g id="line2d_127">
    <path clip-path="url(#pa7cd56e642)" d="M 390.659609 89.479762 
L 390.659609 86.510714 
" style="fill:none;stroke:#000000;stroke-linecap:square;"/>
   </g>
   <g id="line2d_128">
    <path clip-path="url(#pa7cd56e642)" d="M 309.379105 79.088095 
L 309.379105 73.15 
L 350.65326 73.15 
L 350.65326 79.088095 
L 309.379105 79.088095 
" style="fill:none;stroke:#1f77b4;stroke-linecap:square;"/>
   </g>
   <g id="line2d_129">
    <path clip-path="url(#pa7cd56e642)" d="M 309.379105 76.119048 
L 260.059855 76.119048 
" style="fill:none;stroke:#1f77b4;stroke-linecap:square;"/>
   </g>
   <g id="line2d_130">
    <path clip-path="url(#pa7cd56e642)" d="M 350.65326 76.119048 
L 399.612516 76.119048 
" style="fill:none;stroke:#1f77b4;stroke-linecap:square;"/>
   </g>
   <g id="line2d_131">
    <path clip-path="url(#pa7cd56e642)" d="M 260.059855 77.603571 
L 260.059855 74.634524 
" style="fill:none;stroke:#000000;stroke-linecap:square;"/>
   </g>
   <g id="line2d_132">
    <path clip-path="url(#pa7cd56e642)" d="M 399.612516 77.603571 
L 399.612516 74.634524 
" style="fill:none;stroke:#000000;stroke-linecap:square;"/>
   </g>
   <g id="line2d_133">
    <path clip-path="url(#pa7cd56e642)" d="M 312.5721 67.211905 
L 312.5721 61.27381 
L 344.392486 61.27381 
L 344.392486 67.211905 
L 312.5721 67.211905 
" style="fill:none;stroke:#1f77b4;stroke-linecap:square;"/>
   </g>
   <g id="line2d_134">
    <path clip-path="url(#pa7cd56e642)" d="M 312.5721 64.242857 
L 270.765779 64.242857 
" style="fill:none;stroke:#1f77b4;stroke-linecap:square;"/>
   </g>
   <g id="line2d_135">
    <path clip-path="url(#pa7cd56e642)" d="M 344.392486 64.242857 
L 388.217907 64.242857 
" style="fill:none;stroke:#1f77b4;stroke-linecap:square;"/>
   </g>
   <g id="line2d_136">
    <path clip-path="url(#pa7cd56e642)" d="M 270.765779 65.727381 
L 270.765779 62.758333 
" style="fill:none;stroke:#000000;stroke-linecap:square;"/>
   </g>
   <g id="line2d_137">
    <path clip-path="url(#pa7cd56e642)" d="M 388.217907 65.727381 
L 388.217907 62.758333 
" style="fill:none;stroke:#000000;stroke-linecap:square;"/>
   </g>
   <g id="line2d_138">
    <path clip-path="url(#pa7cd56e642)" d="M 316.657255 55.335714 
L 316.657255 49.397619 
L 355.849703 49.397619 
L 355.849703 55.335714 
L 316.657255 55.335714 
" style="fill:none;stroke:#1f77b4;stroke-linecap:square;"/>
   </g>
   <g id="line2d_139">
    <path clip-path="url(#pa7cd56e642)" d="M 316.657255 52.366667 
L 272.143149 52.366667 
" style="fill:none;stroke:#1f77b4;stroke-linecap:square;"/>
   </g>
   <g id="line2d_140">
    <path clip-path="url(#pa7cd56e642)" d="M 355.849703 52.366667 
L 401.929003 52.366667 
" style="fill:none;stroke:#1f77b4;stroke-linecap:square;"/>
   </g>
   <g id="line2d_141">
    <path clip-path="url(#pa7cd56e642)" d="M 272.143149 53.85119 
L 272.143149 50.882143 
" style="fill:none;stroke:#000000;stroke-linecap:square;"/>
   </g>
   <g id="line2d_142">
    <path clip-path="url(#pa7cd56e642)" d="M 401.929003 53.85119 
L 401.929003 50.882143 
" style="fill:none;stroke:#000000;stroke-linecap:square;"/>
   </g>
   <g id="line2d_143">
    <path clip-path="url(#pa7cd56e642)" d="M 310.646912 43.459524 
L 310.646912 37.521429 
L 354.722764 37.521429 
L 354.722764 43.459524 
L 310.646912 43.459524 
" style="fill:none;stroke:#1f77b4;stroke-linecap:square;"/>
   </g>
   <g id="line2d_144">
    <path clip-path="url(#pa7cd56e642)" d="M 310.646912 40.490476 
L 258.8077 40.490476 
" style="fill:none;stroke:#1f77b4;stroke-linecap:square;"/>
   </g>
   <g id="line2d_145">
    <path clip-path="url(#pa7cd56e642)" d="M 354.722764 40.490476 
L 402.617688 40.490476 
" style="fill:none;stroke:#1f77b4;stroke-linecap:square;"/>
   </g>
   <g id="line2d_146">
    <path clip-path="url(#pa7cd56e642)" d="M 258.8077 41.975 
L 258.8077 39.005952 
" style="fill:none;stroke:#000000;stroke-linecap:square;"/>
   </g>
   <g id="line2d_147">
    <path clip-path="url(#pa7cd56e642)" d="M 402.617688 41.975 
L 402.617688 39.005952 
" style="fill:none;stroke:#000000;stroke-linecap:square;"/>
   </g>
   <g id="line2d_148">
    <path clip-path="url(#pa7cd56e642)" d="M 318.785919 31.583333 
L 318.785919 25.645238 
L 349.714144 25.645238 
L 349.714144 31.583333 
L 318.785919 31.583333 
" style="fill:none;stroke:#1f77b4;stroke-linecap:square;"/>
   </g>
   <g id="line2d_149">
    <path clip-path="url(#pa7cd56e642)" d="M 318.785919 28.614286 
L 280.031725 28.614286 
" style="fill:none;stroke:#1f77b4;stroke-linecap:square;"/>
   </g>
   <g id="line2d_150">
    <path clip-path="url(#pa7cd56e642)" d="M 349.714144 28.614286 
L 394.416073 28.614286 
" style="fill:none;stroke:#1f77b4;stroke-linecap:square;"/>
   </g>
   <g id="line2d_151">
    <path clip-path="url(#pa7cd56e642)" d="M 280.031725 30.09881 
L 280.031725 27.129762 
" style="fill:none;stroke:#000000;stroke-linecap:square;"/>
   </g>
   <g id="line2d_152">
    <path clip-path="url(#pa7cd56e642)" d="M 394.416073 30.09881 
L 394.416073 27.129762 
" style="fill:none;stroke:#000000;stroke-linecap:square;"/>
   </g>
   <g id="line2d_153">
    <path clip-path="url(#pa7cd56e642)" d="M 312.212106 19.707143 
L 312.212106 13.769048 
L 353.267134 13.769048 
L 353.267134 19.707143 
L 312.212106 19.707143 
" style="fill:none;stroke:#1f77b4;stroke-linecap:square;"/>
   </g>
   <g id="line2d_154">
    <path clip-path="url(#pa7cd56e642)" d="M 312.212106 16.738095 
L 267.510176 16.738095 
" style="fill:none;stroke:#1f77b4;stroke-linecap:square;"/>
   </g>
   <g id="line2d_155">
    <path clip-path="url(#pa7cd56e642)" d="M 353.267134 16.738095 
L 400.489024 16.738095 
" style="fill:none;stroke:#1f77b4;stroke-linecap:square;"/>
   </g>
   <g id="line2d_156">
    <path clip-path="url(#pa7cd56e642)" d="M 267.510176 18.222619 
L 267.510176 15.253571 
" style="fill:none;stroke:#000000;stroke-linecap:square;"/>
   </g>
   <g id="line2d_157">
    <path clip-path="url(#pa7cd56e642)" d="M 400.489024 18.222619 
L 400.489024 15.253571 
" style="fill:none;stroke:#000000;stroke-linecap:square;"/>
   </g>
   <g id="line2d_158">
    <path clip-path="url(#pa7cd56e642)" d="M 165.365642 257.230952 
L 165.365642 251.292857 
" style="fill:none;stroke:#2ca02c;stroke-linecap:square;"/>
   </g>
   <g id="line2d_159">
    <path clip-path="url(#pa7cd56e642)" d="M 167.619521 245.354762 
L 167.619521 239.416667 
" style="fill:none;stroke:#2ca02c;stroke-linecap:square;"/>
   </g>
   <g id="line2d_160">
    <path clip-path="url(#pa7cd56e642)" d="M 167.869952 233.478571 
L 167.869952 227.540476 
" style="fill:none;stroke:#2ca02c;stroke-linecap:square;"/>
   </g>
   <g id="line2d_161">
    <path clip-path="url(#pa7cd56e642)" d="M 168.214295 221.602381 
L 168.214295 215.664286 
" style="fill:none;stroke:#2ca02c;stroke-linecap:square;"/>
   </g>
   <g id="line2d_162">
    <path clip-path="url(#pa7cd56e642)" d="M 170.155135 209.72619 
L 170.155135 203.788095 
" style="fill:none;stroke:#2ca02c;stroke-linecap:square;"/>
   </g>
   <g id="line2d_163">
    <path clip-path="url(#pa7cd56e642)" d="M 243.500107 197.85 
L 243.500107 191.911905 
" style="fill:none;stroke:#2ca02c;stroke-linecap:square;"/>
   </g>
   <g id="line2d_164">
    <path clip-path="url(#pa7cd56e642)" d="M 244.345311 185.97381 
L 244.345311 180.035714 
" style="fill:none;stroke:#2ca02c;stroke-linecap:square;"/>
   </g>
   <g id="line2d_165">
    <path clip-path="url(#pa7cd56e642)" d="M 250.230439 174.097619 
L 250.230439 168.159524 
" style="fill:none;stroke:#2ca02c;stroke-linecap:square;"/>
   </g>
   <g id="line2d_166">
    <path clip-path="url(#pa7cd56e642)" d="M 251.419986 162.221429 
L 251.419986 156.283333 
" style="fill:none;stroke:#2ca02c;stroke-linecap:square;"/>
   </g>
   <g id="line2d_167">
    <path clip-path="url(#pa7cd56e642)" d="M 254.018208 150.345238 
L 254.018208 144.407143 
" style="fill:none;stroke:#2ca02c;stroke-linecap:square;"/>
   </g>
   <g id="line2d_168">
    <path clip-path="url(#pa7cd56e642)" d="M 254.049512 138.469048 
L 254.049512 132.530952 
" style="fill:none;stroke:#2ca02c;stroke-linecap:square;"/>
   </g>
   <g id="line2d_169">
    <path clip-path="url(#pa7cd56e642)" d="M 254.112119 126.592857 
L 254.112119 120.654762 
" style="fill:none;stroke:#2ca02c;stroke-linecap:square;"/>
   </g>
   <g id="line2d_170">
    <path clip-path="url(#pa7cd56e642)" d="M 257.242506 114.716667 
L 257.242506 108.778571 
" style="fill:none;stroke:#2ca02c;stroke-linecap:square;"/>
   </g>
   <g id="line2d_171">
    <path clip-path="url(#pa7cd56e642)" d="M 326.048417 102.840476 
L 326.048417 96.902381 
" style="fill:none;stroke:#2ca02c;stroke-linecap:square;"/>
   </g>
   <g id="line2d_172">
    <path clip-path="url(#pa7cd56e642)" d="M 328.051865 90.964286 
L 328.051865 85.02619 
" style="fill:none;stroke:#2ca02c;stroke-linecap:square;"/>
   </g>
   <g id="line2d_173">
    <path clip-path="url(#pa7cd56e642)" d="M 329.084893 79.088095 
L 329.084893 73.15 
" style="fill:none;stroke:#2ca02c;stroke-linecap:square;"/>
   </g>
   <g id="line2d_174">
    <path clip-path="url(#pa7cd56e642)" d="M 329.773578 67.211905 
L 329.773578 61.27381 
" style="fill:none;stroke:#2ca02c;stroke-linecap:square;"/>
   </g>
   <g id="line2d_175">
    <path clip-path="url(#pa7cd56e642)" d="M 330.180528 55.335714 
L 330.180528 49.397619 
" style="fill:none;stroke:#2ca02c;stroke-linecap:square;"/>
   </g>
   <g id="line2d_176">
    <path clip-path="url(#pa7cd56e642)" d="M 331.620506 43.459524 
L 331.620506 37.521429 
" style="fill:none;stroke:#2ca02c;stroke-linecap:square;"/>
   </g>
   <g id="line2d_177">
    <path clip-path="url(#pa7cd56e642)" d="M 332.05876 31.583333 
L 332.05876 25.645238 
" style="fill:none;stroke:#2ca02c;stroke-linecap:square;"/>
   </g>
   <g id="line2d_178">
    <path clip-path="url(#pa7cd56e642)" d="M 333.623954 19.707143 
L 333.623954 13.769048 
" style="fill:none;stroke:#2ca02c;stroke-linecap:square;"/>
   </g>
   <g id="patch_3">
    <path d="M 101.8 260.2 
L 101.8 10.8 
" style="fill:none;stroke:#000000;stroke-linecap:square;stroke-linejoin:miter;stroke-width:0.8;"/>
   </g>
   <g id="patch_4">
    <path d="M 416.942339 260.2 
L 416.942339 10.8 
" style="fill:none;stroke:#000000;stroke-linecap:square;stroke-linejoin:miter;stroke-width:0.8;"/>
   </g>
   <g id="patch_5">
    <path d="M 101.8 260.2 
L 416.942339 260.2 
" style="fill:none;stroke:#000000;stroke-linecap:square;stroke-linejoin:miter;stroke-width:0.8;"/>
   </g>
   <g id="patch_6">
    <path d="M 101.8 10.8 
L 416.942339 10.8 
" style="fill:none;stroke:#000000;stroke-linecap:square;stroke-linejoin:miter;stroke-width:0.8;"/>
   </g>
   <g id="text_27">
    <!-- Boxplot summary of final weight distributions of rats given a dosage of 50 mg/day -->
    <defs>
     <path d="M 54.890625 54.6875 
L 35.109375 28.078125 
L 55.90625 0 
L 45.3125 0 
L 29.390625 21.484375 
L 13.484375 0 
L 2.875 0 
L 24.125 28.609375 
L 4.6875 54.6875 
L 15.28125 54.6875 
L 29.78125 35.203125 
L 44.28125 54.6875 
z
" id="DejaVuSans-120"/>
     <path id="DejaVuSans-32"/>
     <path d="M 4.203125 54.6875 
L 13.1875 54.6875 
L 24.421875 12.015625 
L 35.59375 54.6875 
L 46.1875 54.6875 
L 57.421875 12.015625 
L 68.609375 54.6875 
L 77.59375 54.6875 
L 63.28125 0 
L 52.6875 0 
L 40.921875 44.828125 
L 29.109375 0 
L 18.5 0 
z
" id="DejaVuSans-119"/>
     <path d="M 45.40625 46.390625 
L 45.40625 75.984375 
L 54.390625 75.984375 
L 54.390625 0 
L 45.40625 0 
L 45.40625 8.203125 
Q 42.578125 3.328125 38.25 0.953125 
Q 33.9375 -1.421875 27.875 -1.421875 
Q 17.96875 -1.421875 11.734375 6.484375 
Q 5.515625 14.40625 5.515625 27.296875 
Q 5.515625 40.1875 11.734375 48.09375 
Q 17.96875 56 27.875 56 
Q 33.9375 56 38.25 53.625 
Q 42.578125 51.265625 45.40625 46.390625 
z
M 14.796875 27.296875 
Q 14.796875 17.390625 18.875 11.75 
Q 22.953125 6.109375 30.078125 6.109375 
Q 37.203125 6.109375 41.296875 11.75 
Q 45.40625 17.390625 45.40625 27.296875 
Q 45.40625 37.203125 41.296875 42.84375 
Q 37.203125 48.484375 30.078125 48.484375 
Q 22.953125 48.484375 18.875 42.84375 
Q 14.796875 37.203125 14.796875 27.296875 
z
" id="DejaVuSans-100"/>
     <path d="M 2.984375 54.6875 
L 12.5 54.6875 
L 29.59375 8.796875 
L 46.6875 54.6875 
L 56.203125 54.6875 
L 35.6875 0 
L 23.484375 0 
z
" id="DejaVuSans-118"/>
     <path d="M 25.390625 72.90625 
L 33.6875 72.90625 
L 8.296875 -9.28125 
L 0 -9.28125 
z
" id="DejaVuSans-47"/>
    </defs>
    <g transform="translate(11.846795 4.8)scale(0.12 -0.12)">
     <use xlink:href="#DejaVuSans-66"/>
     <use x="68.603516" xlink:href="#DejaVuSans-111"/>
     <use x="126.660156" xlink:href="#DejaVuSans-120"/>
     <use x="185.839844" xlink:href="#DejaVuSans-112"/>
     <use x="249.316406" xlink:href="#DejaVuSans-108"/>
     <use x="277.099609" xlink:href="#DejaVuSans-111"/>
     <use x="338.28125" xlink:href="#DejaVuSans-116"/>
     <use x="377.490234" xlink:href="#DejaVuSans-32"/>
     <use x="409.277344" xlink:href="#DejaVuSans-115"/>
     <use x="461.376953" xlink:href="#DejaVuSans-117"/>
     <use x="524.755859" xlink:href="#DejaVuSans-109"/>
     <use x="622.167969" xlink:href="#DejaVuSans-109"/>
     <use x="719.580078" xlink:href="#DejaVuSans-97"/>
     <use x="780.859375" xlink:href="#DejaVuSans-114"/>
     <use x="821.972656" xlink:href="#DejaVuSans-121"/>
     <use x="881.152344" xlink:href="#DejaVuSans-32"/>
     <use x="912.939453" xlink:href="#DejaVuSans-111"/>
     <use x="974.121094" xlink:href="#DejaVuSans-102"/>
     <use x="1009.326172" xlink:href="#DejaVuSans-32"/>
     <use x="1041.113281" xlink:href="#DejaVuSans-102"/>
     <use x="1076.318359" xlink:href="#DejaVuSans-105"/>
     <use x="1104.101562" xlink:href="#DejaVuSans-110"/>
     <use x="1167.480469" xlink:href="#DejaVuSans-97"/>
     <use x="1228.759766" xlink:href="#DejaVuSans-108"/>
     <use x="1256.542969" xlink:href="#DejaVuSans-32"/>
     <use x="1288.330078" xlink:href="#DejaVuSans-119"/>
     <use x="1370.117188" xlink:href="#DejaVuSans-101"/>
     <use x="1431.640625" xlink:href="#DejaVuSans-105"/>
     <use x="1459.423828" xlink:href="#DejaVuSans-103"/>
     <use x="1522.900391" xlink:href="#DejaVuSans-104"/>
     <use x="1586.279297" xlink:href="#DejaVuSans-116"/>
     <use x="1625.488281" xlink:href="#DejaVuSans-32"/>
     <use x="1657.275391" xlink:href="#DejaVuSans-100"/>
     <use x="1720.751953" xlink:href="#DejaVuSans-105"/>
     <use x="1748.535156" xlink:href="#DejaVuSans-115"/>
     <use x="1800.634766" xlink:href="#DejaVuSans-116"/>
     <use x="1839.84375" xlink:href="#DejaVuSans-114"/>
     <use x="1880.957031" xlink:href="#DejaVuSans-105"/>
     <use x="1908.740234" xlink:href="#DejaVuSans-98"/>
     <use x="1972.216797" xlink:href="#DejaVuSans-117"/>
     <use x="2035.595703" xlink:href="#DejaVuSans-116"/>
     <use x="2074.804688" xlink:href="#DejaVuSans-105"/>
     <use x="2102.587891" xlink:href="#DejaVuSans-111"/>
     <use x="2163.769531" xlink:href="#DejaVuSans-110"/>
     <use x="2227.148438" xlink:href="#DejaVuSans-115"/>
     <use x="2279.248047" xlink:href="#DejaVuSans-32"/>
     <use x="2311.035156" xlink:href="#DejaVuSans-111"/>
     <use x="2372.216797" xlink:href="#DejaVuSans-102"/>
     <use x="2407.421875" xlink:href="#DejaVuSans-32"/>
     <use x="2439.208984" xlink:href="#DejaVuSans-114"/>
     <use x="2480.322266" xlink:href="#DejaVuSans-97"/>
     <use x="2541.601562" xlink:href="#DejaVuSans-116"/>
     <use x="2580.810547" xlink:href="#DejaVuSans-115"/>
     <use x="2632.910156" xlink:href="#DejaVuSans-32"/>
     <use x="2664.697266" xlink:href="#DejaVuSans-103"/>
     <use x="2728.173828" xlink:href="#DejaVuSans-105"/>
     <use x="2755.957031" xlink:href="#DejaVuSans-118"/>
     <use x="2815.136719" xlink:href="#DejaVuSans-101"/>
     <use x="2876.660156" xlink:href="#DejaVuSans-110"/>
     <use x="2940.039062" xlink:href="#DejaVuSans-32"/>
     <use x="2971.826172" xlink:href="#DejaVuSans-97"/>
     <use x="3033.105469" xlink:href="#DejaVuSans-32"/>
     <use x="3064.892578" xlink:href="#DejaVuSans-100"/>
     <use x="3128.369141" xlink:href="#DejaVuSans-111"/>
     <use x="3189.550781" xlink:href="#DejaVuSans-115"/>
     <use x="3241.650391" xlink:href="#DejaVuSans-97"/>
     <use x="3302.929688" xlink:href="#DejaVuSans-103"/>
     <use x="3366.40625" xlink:href="#DejaVuSans-101"/>
     <use x="3427.929688" xlink:href="#DejaVuSans-32"/>
     <use x="3459.716797" xlink:href="#DejaVuSans-111"/>
     <use x="3520.898438" xlink:href="#DejaVuSans-102"/>
     <use x="3556.103516" xlink:href="#DejaVuSans-32"/>
     <use x="3587.890625" xlink:href="#DejaVuSans-53"/>
     <use x="3651.513672" xlink:href="#DejaVuSans-48"/>
     <use x="3715.136719" xlink:href="#DejaVuSans-32"/>
     <use x="3746.923828" xlink:href="#DejaVuSans-109"/>
     <use x="3844.335938" xlink:href="#DejaVuSans-103"/>
     <use x="3907.8125" xlink:href="#DejaVuSans-47"/>
     <use x="3941.503906" xlink:href="#DejaVuSans-100"/>
     <use x="4004.980469" xlink:href="#DejaVuSans-97"/>
     <use x="4066.259766" xlink:href="#DejaVuSans-121"/>
    </g>
   </g>
  </g>
 </g>
 <defs>
  <clipPath id="pa7cd56e642">
   <rect height="249.4" width="315.142339" x="101.8" y="10.8"/>
  </clipPath>
 </defs>
</svg>
